<?xml version="1.0" encoding="UTF-8"?>
<svg xmlns="http://www.w3.org/2000/svg" xmlns:xlink="http://www.w3.org/1999/xlink" viewBox="0 0 1139.34 1038.81">
  <defs>
    <style>
      .cls-1 {
        stroke: #e3e3e3;
      }

      .cls-1, .cls-2, .cls-3, .cls-4, .cls-5, .cls-6, .cls-7, .cls-8, .cls-9, .cls-10, .cls-11, .cls-12, .cls-13, .cls-14, .cls-15, .cls-16, .cls-17, .cls-18, .cls-19, .cls-20, .cls-21, .cls-22, .cls-23, .cls-24, .cls-25, .cls-26, .cls-27, .cls-28, .cls-29, .cls-30, .cls-31, .cls-32, .cls-33, .cls-34, .cls-35, .cls-36, .cls-37, .cls-38 {
        fill: none;
      }

      .cls-1, .cls-2, .cls-3, .cls-4, .cls-5, .cls-6, .cls-7, .cls-8, .cls-9, .cls-10, .cls-11, .cls-12, .cls-13, .cls-14, .cls-15, .cls-16, .cls-18, .cls-19, .cls-20, .cls-21, .cls-22, .cls-23, .cls-24, .cls-25, .cls-26, .cls-27, .cls-28, .cls-29, .cls-30, .cls-31, .cls-32, .cls-33, .cls-34, .cls-35, .cls-36, .cls-37, .cls-38 {
        stroke-miterlimit: 10;
      }

      .cls-2 {
        stroke: #a4a4a4;
      }

      .cls-3 {
        stroke: #e1e1e1;
      }

      .cls-4 {
        stroke: #b1b1b1;
      }

      .cls-5 {
        stroke: #909090;
      }

      .cls-6 {
        stroke: #d4d4d4;
      }

      .cls-7 {
        stroke: #ababab;
      }

      .cls-8 {
        stroke: #fff;
      }

      .cls-9 {
        stroke: #c7c7c7;
      }

      .cls-10 {
        stroke: #b7b7b7;
      }

      .cls-39 {
        isolation: isolate;
      }

      .cls-11 {
        stroke: #959595;
      }

      .cls-12 {
        stroke: #a8a8a8;
      }

      .cls-13 {
        stroke: #d2d2d2;
      }

      .cls-14 {
        stroke: #f6f6f6;
      }

      .cls-15 {
        stroke: #bcbcbc;
      }

      .cls-16 {
        stroke: #b5b5b5;
      }

      .cls-17 {
        stroke-width: 0px;
      }

      .cls-18 {
        stroke: #fbfbfb;
      }

      .cls-19 {
        stroke: #bababa;
      }

      .cls-20 {
        stroke: #8a8a8a;
      }

      .cls-21 {
        stroke: #dcdcdc;
      }

      .cls-22 {
        stroke: #bebebe;
      }

      .cls-23 {
        stroke: #cfcfcf;
      }

      .cls-24 {
        stroke: #f9f9f9;
      }

      .cls-25 {
        stroke: #c2c2c2;
      }

      .cls-40 {
        clip-path: url(#clippath);
      }

      .cls-26 {
        stroke: #cbcbcb;
      }

      .cls-27 {
        stroke: #9b9b9b;
      }

      .cls-28 {
        stroke: #a0a0a0;
      }

      .cls-29 {
        stroke: #dedede;
      }

      .cls-30 {
        stroke: #eee;
      }

      .cls-31 {
        stroke: #d8d8d8;
      }

      .cls-32 {
        stroke: #adadad;
      }

      .cls-33 {
        stroke: #f4f4f4;
      }

      .cls-34 {
        stroke: #a6a6a6;
      }

      .cls-35 {
        stroke: #f2f2f2;
      }

      .cls-36 {
        stroke: #e9e9e9;
      }

      .cls-41 {
        mix-blend-mode: multiply;
      }

      .cls-37 {
        stroke: #cdcdcd;
      }

      .cls-38 {
        stroke: #e5e5e5;
      }
    </style>
    <clipPath id="clippath">
      <rect class="cls-17" x="264.58" y="288.74" width="750" height="500"/>
    </clipPath>
  </defs>
  <g class="cls-39">
    <g id="OBJECTS">
      <g class="cls-40">
        <g>
          <g class="cls-41">
            <path class="cls-8" d="m691.28,236.44c-6.03,25.85-13.62,51.34-22.7,76.29-4.04,11.09-8.52,22.32-16.31,31.18-19.93,22.65-54.8,23.36-84.56,18.43-27.41-4.53-54.28-12.34-79.85-23.2-25.34-10.76-49.85-24.65-77.01-29.21-27.15-4.56-58.74,2.77-73.37,26.1-8.7,13.88-10.09,31.44-6.69,47.47s11.2,30.77,19.85,44.68c9.91,15.93,21.41,32.05,22.9,50.75,1.54,19.36-9.16,39.15-26.19,48.47-24.23,13.26-53.9,4.94-81.07-.01-34.52-6.3-71.55-6.24-103.09,9.14-31.54,15.39-55.92,48.82-52.68,83.77"/>
            <path class="cls-24" d="m685.16,231.21c-5.88,25.27-13.34,50.17-22.3,74.51-3.99,10.82-8.41,21.77-16.01,30.44-19.41,22.18-53.15,23.4-82.09,19.18-6.87-1-13.71-2.22-20.51-3.64-19.57-4.1-38.78-9.92-57.33-17.38-24.76-9.97-48.76-22.98-75.3-27.16-26.53-4.19-56.46,3.46-71.91,25.14-5.81,8.16-9.78,16.95-11.46,26.44-1.15,6.46-1.4,13.17-.72,19.84.31,3.05.79,6.1,1.45,9.16,2.66,12.24,8.31,24.22,14.5,35.61.61,1.13,1.23,2.25,1.86,3.38,9.68,17.48,19.9,35.35,20.46,54.89s-9.4,37.97-25.99,47.15c-23.6,13.07-52.39,5.58-78.69,1.41-2.07-.33-4.15-.63-6.24-.91-31.56-4.22-64.56-2.5-92.72,12.06-30.02,15.52-52.95,48.23-49.32,82.19"/>
            <path class="cls-33" d="m679.04,225.98c-5.72,24.69-13.06,49.01-21.91,72.74-3.94,10.55-8.3,21.21-15.7,29.71-18.9,21.71-51.51,23.45-79.63,19.92-6.68-.84-13.33-1.88-19.94-3.12-19.04-3.59-37.76-8.86-55.88-15.72-24.18-9.17-47.67-21.3-73.58-25.11-25.9-3.82-54.36,4.11-70.45,24.19-6.49,8.1-11.8,16.08-14.63,25.29-1.93,6.28-3.02,12.95-3.05,19.8-.02,3.13.17,6.32.59,9.55,1.68,12.94,7.3,26.03,13.37,38.39.6,1.23,1.21,2.45,1.82,3.67,9.45,19.03,18.42,38.57,18.03,59.04-.35,18.25-9.63,36.78-25.78,45.84-22.98,12.89-50.89,6.23-76.3,2.83-2-.27-4.01-.51-6.03-.73-30.47-3.3-62.06-.81-88.79,13.88-28.5,15.66-49.99,47.64-45.96,80.6"/>
            <path class="cls-30" d="m672.92,220.75c-5.57,24.12-12.78,47.84-21.51,70.97-3.88,10.28-8.2,20.66-15.4,28.97-18.39,21.24-49.87,23.49-77.16,20.67-6.48-.67-12.94-1.54-19.37-2.61-18.51-3.08-36.75-7.79-54.43-14.06-23.6-8.37-46.58-19.63-71.87-23.07-25.28-3.44-52.43,4.72-69,23.24-7.21,8.06-13.81,15.21-17.79,24.15-2.72,6.09-4.65,12.73-5.38,19.76-.34,3.22-.45,6.53-.28,9.94.69,13.64,6.28,27.83,12.24,41.18.59,1.32,1.18,2.64,1.78,3.96,9.23,20.58,16.97,41.72,15.59,63.18-1.14,17.65-9.87,35.6-25.58,44.52-22.35,12.7-49.39,6.87-73.92,4.25-1.93-.21-3.87-.39-5.82-.55-29.39-2.39-59.56.88-84.87,15.71-26.99,15.8-47.02,47.05-42.59,79.02"/>
            <path class="cls-36" d="m666.8,215.52c-5.41,23.54-12.49,46.67-21.12,69.19-3.83,10.01-8.09,20.1-15.09,28.24-17.88,20.78-48.23,23.54-74.69,21.41-6.29-.5-12.56-1.2-18.8-2.09-17.98-2.57-35.73-6.73-52.97-12.4-23.02-7.58-45.49-17.95-70.16-21.02-24.66-3.07-50.65,5.26-67.54,22.28-7.98,8.04-15.83,14.35-20.95,23.01-3.51,5.9-6.27,12.51-7.71,19.71-.67,3.3-1.07,6.74-1.15,10.33-.29,14.34,5.26,29.64,11.1,43.96.58,1.42,1.16,2.84,1.74,4.26,9,22.14,15.56,44.83,13.15,67.33-1.82,17.03-10.11,34.41-25.38,43.2-21.72,12.51-47.88,7.51-71.54,5.67-1.86-.14-3.73-.27-5.61-.37-28.31-1.47-57.06,2.58-80.95,17.53-25.47,15.93-44.05,46.46-39.23,77.44"/>
            <path class="cls-1" d="m660.67,210.29c-5.26,22.96-12.21,45.5-20.72,67.42-3.78,9.74-7.99,19.55-14.79,27.5-17.37,20.31-46.59,23.59-72.23,22.16-6.09-.34-12.17-.86-18.23-1.58-17.45-2.06-34.72-5.66-51.52-10.74-22.44-6.78-44.4-16.28-68.45-18.97-24.03-2.7-49.01,5.72-66.08,21.33-8.78,8.03-17.85,13.48-24.12,21.87-4.29,5.72-7.9,12.28-10.04,19.67-.99,3.38-1.69,6.95-2.02,10.72-1.27,15.04,4.25,31.44,9.97,46.75.57,1.51,1.13,3.03,1.7,4.55,8.77,23.69,14.2,47.9,10.72,71.47-2.42,16.39-10.35,33.23-25.17,41.88-21.09,12.32-46.38,8.15-69.15,7.09-1.8-.08-3.59-.14-5.39-.18-27.22-.56-54.56,4.27-77.03,19.35-23.95,16.07-41.09,45.87-35.87,75.86"/>
            <path class="cls-29" d="m654.55,205.06c-5.1,22.38-11.93,44.34-20.33,65.65-3.73,9.47-7.88,19-14.48,26.77-16.86,19.84-44.94,23.63-69.76,22.9-5.9-.17-11.79-.53-17.66-1.06-16.92-1.55-33.7-4.6-50.07-9.08-21.86-5.98-43.31-14.6-66.74-16.92-23.41-2.33-47.48,6.11-64.63,20.38-9.63,8.01-19.86,12.61-27.28,20.73-5.08,5.53-9.52,12.06-12.37,19.62-1.32,3.47-2.31,7.16-2.88,11.11-2.25,15.74,3.23,33.24,8.84,49.53.56,1.61,1.11,3.23,1.66,4.84,8.55,25.24,12.89,50.94,8.28,75.62-2.94,15.75-10.59,32.05-24.97,40.57-20.47,12.14-44.88,8.79-66.77,8.51-1.73-.02-3.45-.02-5.18,0-26.14.36-52.06,5.96-73.1,21.17-22.43,16.21-38.12,45.28-32.5,74.28"/>
            <path class="cls-31" d="m648.43,199.84c-4.95,21.8-11.65,43.17-19.93,63.87-3.68,9.2-7.77,18.44-14.18,26.03-16.34,19.37-43.3,23.68-67.29,23.64-5.7,0-11.4-.19-17.09-.55-16.39-1.04-32.68-3.53-48.62-7.42-21.28-5.19-42.22-12.93-65.03-14.87-22.78-1.96-48.63,3.59-63.17,19.42-11.76,5.99-21.88,11.75-30.45,19.59-5.86,5.34-11.15,11.84-14.7,19.58-1.64,3.55-2.93,7.37-3.75,11.5-3.23,16.44,2.21,35.05,7.7,52.32.54,1.71,1.08,3.42,1.62,5.13,8.32,26.79,11.64,53.97,5.84,79.76-3.4,15.12-10.83,30.86-24.76,39.25-19.84,11.95-43.38,9.43-64.39,9.93-1.66.04-3.31.1-4.97.18-25.05,1.27-49.57,7.65-69.18,22.99-20.91,16.34-35.16,44.69-29.14,72.7"/>
            <path class="cls-13" d="m642.31,194.61c-4.79,21.22-11.37,42-19.54,62.1-3.63,8.93-7.67,17.89-13.87,25.3-15.83,18.9-41.66,23.72-64.83,24.39-5.51.16-11.02.15-16.52-.03-15.86-.53-31.67-2.47-47.17-5.76-20.7-4.39-41.13-11.25-63.32-12.83-22.16-1.58-47.18,3.71-61.71,18.47-12.7,5.66-23.89,10.88-33.61,18.44-6.65,5.16-12.77,11.62-17.03,19.53-1.97,3.63-3.55,7.59-4.62,11.89-4.21,17.14,1.2,36.85,6.57,55.1.53,1.8,1.06,3.61,1.58,5.43,8.09,28.35,10.45,56.99,3.4,83.91-3.79,14.48-11.07,29.68-24.56,37.93-19.21,11.76-41.87,10.07-62,11.35-1.59.1-3.17.22-4.76.37-23.97,2.19-47.07,9.34-65.26,24.82-19.4,16.48-32.19,44.1-25.78,71.12"/>
            <path class="cls-37" d="m636.19,189.38c-4.63,20.64-11.09,40.83-19.14,60.33-3.58,8.67-7.56,17.34-13.57,24.56-15.32,18.44-40.02,23.77-62.36,25.13-5.31.33-10.63.49-15.95.48-15.33-.02-30.65-1.4-45.72-4.09-20.12-3.59-40.04-9.58-61.61-10.78-21.54-1.21-45.74,3.83-60.26,17.52-13.64,5.34-25.91,10.01-36.77,17.3-7.43,4.97-14.4,11.39-19.36,19.49-2.29,3.72-4.17,7.8-5.48,12.28-5.19,17.84.18,38.65,5.44,57.89.52,1.9,1.04,3.81,1.54,5.72,7.87,29.9,9.34,60.02.97,88.05-4.14,13.86-11.31,28.49-24.36,36.61-18.58,11.57-40.37,10.71-59.62,12.77-1.52.16-3.03.34-4.55.55-22.88,3.1-44.57,11.03-61.34,26.64-17.88,16.61-29.22,43.5-22.41,69.54"/>
            <path class="cls-9" d="m630.06,184.15c-4.48,20.07-10.81,39.67-18.75,58.55-3.53,8.4-7.45,16.78-13.26,23.83-14.81,17.97-38.38,23.82-59.89,25.88-5.12.49-10.25.83-15.38,1-14.8.49-29.63-.34-44.27-2.43-19.53-2.8-38.95-7.9-59.9-8.73-20.91-.84-44.3,3.95-58.8,16.56-14.58,5.02-27.92,9.15-39.94,16.16-8.22,4.78-16.02,11.17-21.69,19.44-2.62,3.8-4.79,8.01-6.35,12.67-6.17,18.54-.84,40.46,4.3,60.67.51,2,1.01,4,1.5,6.01,7.64,31.45,8.3,63.07-1.47,92.2-4.44,13.24-11.55,27.31-24.15,35.3-17.96,11.39-38.87,11.36-57.24,14.19-1.45.22-2.89.47-4.34.73-21.8,4.02-42.07,12.73-57.41,28.46-16.36,16.75-26.26,42.91-19.05,67.96"/>
            <path class="cls-25" d="m623.94,178.92c-4.32,19.49-10.53,38.5-18.35,56.78-3.48,8.13-7.35,16.23-12.96,23.09-14.3,17.5-36.73,23.86-57.43,26.62-4.92.66-9.86,1.17-14.82,1.51-14.27,1.01-28.62.72-42.82-.77-18.95-2-37.86-6.23-58.19-6.68-20.29-.47-42.85,4.06-57.34,15.61-15.52,4.69-29.94,8.28-43.1,15.02-9.01,4.6-17.65,10.95-24.02,19.4-2.94,3.89-5.41,8.22-7.22,13.06-7.15,19.24-1.85,42.26,3.17,63.46.5,2.09.99,4.2,1.46,6.31,7.41,33,7.34,66.15-3.91,96.34-4.71,12.64-11.79,26.12-23.95,33.98-17.33,11.2-37.36,12-54.85,15.61-1.38.29-2.75.59-4.12.92-20.71,4.93-39.57,14.42-53.49,30.28-14.84,16.89-23.29,42.32-15.69,66.38"/>
            <path class="cls-15" d="m617.82,173.69c-4.17,18.91-10.25,37.33-17.96,55.01-3.43,7.86-7.24,15.67-12.65,22.36-13.79,17.03-35.09,23.91-54.96,27.36-4.73.83-9.48,1.5-14.25,2.03-13.74,1.52-27.6,1.79-41.37.89-18.37-1.2-36.77-4.55-56.48-4.63-19.66-.1-41.41,4.18-55.89,14.66-16.46,4.37-31.96,7.41-46.27,13.88-9.79,4.41-19.27,10.73-26.35,19.36-3.27,3.97-6.03,8.43-8.08,13.45-8.13,19.94-2.87,44.07,2.04,66.24.49,2.19.96,4.39,1.42,6.6,7.19,34.56,6.47,69.27-6.34,100.49-4.95,12.05-12.03,24.94-23.75,32.66-16.7,11.01-35.86,12.64-52.47,17.03-1.31.35-2.61.71-3.91,1.1-19.63,5.85-37.07,16.11-49.57,32.1-13.32,17.02-20.33,41.73-12.32,64.79"/>
            <path class="cls-10" d="m611.7,168.46c-4.01,18.33-9.97,36.16-17.56,53.23-3.38,7.59-7.14,15.12-12.35,21.62-13.27,16.56-33.45,23.95-52.49,28.11-4.53.99-9.09,1.84-13.68,2.54-13.21,2.03-26.59,2.85-39.92,2.55-17.79-.41-35.68-2.88-54.77-2.59-19.04.28-38.55,6.94-54.43,13.7s-33.97,6.55-49.43,12.73c-10.58,4.22-20.9,10.5-28.68,19.31-3.59,4.05-6.65,8.65-8.95,13.84-9.11,20.64-3.89,45.87.9,69.02.47,2.29.94,4.59,1.38,6.89,6.96,36.11,5.69,72.44-8.78,104.64-5.16,11.48-12.27,23.75-23.54,31.34-16.07,10.82-34.36,13.28-50.08,18.45-1.24.41-2.47.83-3.7,1.28-18.55,6.76-34.57,17.8-45.65,33.92-11.81,17.16-17.36,41.14-8.96,63.21"/>
            <path class="cls-4" d="m605.58,163.23c-3.86,17.75-9.68,34.99-17.17,51.46-3.33,7.32-7.03,14.57-12.04,20.89-12.76,16.1-31.81,24-50.03,28.85-4.33,1.16-8.71,2.18-13.11,3.06-12.68,2.54-25.57,3.92-38.47,4.21-17.21.39-34.59-1.2-53.06-.54-18.41.65-37.37,6.85-52.97,12.75-17.5,6.62-35.99,5.68-52.59,11.59-11.36,4.04-22.52,10.28-31.01,19.27-3.92,4.14-7.27,8.86-9.82,14.23-10.1,21.34-4.9,47.67-.23,71.81.46,2.38.91,4.78,1.34,7.19,6.73,37.66,5.01,75.67-11.22,108.78-5.36,10.93-12.51,22.57-23.34,30.03-15.45,10.64-32.85,13.92-47.7,19.87-1.17.47-2.33.96-3.49,1.46-17.46,7.68-32.08,19.49-41.72,35.75-10.29,17.3-14.39,40.55-5.6,61.63"/>
            <path class="cls-7" d="m599.45,158c-3.7,17.17-9.4,33.83-16.77,49.69-3.28,7.05-6.92,14.01-11.74,20.15-12.25,15.63-30.17,24.05-47.56,29.6-4.14,1.33-8.32,2.52-12.54,3.57-12.15,3.05-24.55,4.98-37.02,5.87-16.63,1.19-33.5.47-51.35,1.51-17.79,1.02-36.17,6.71-51.52,11.8-18.58,6.16-38,4.81-55.76,10.45-12.15,3.85-24.15,10.06-33.34,19.22-4.24,4.22-7.89,9.07-10.69,14.62-11.08,22.04-5.92,49.48-1.36,74.59.45,2.48.89,4.97,1.3,7.48,6.51,39.21,4.43,78.98-13.65,112.93-5.54,10.39-12.75,21.39-23.14,28.71-14.82,10.45-31.35,14.56-45.32,21.29-1.1.53-2.19,1.08-3.28,1.65-16.38,8.59-29.58,21.18-37.8,37.57-8.77,17.43-11.43,39.96-2.23,60.05"/>
            <path class="cls-34" d="m593.33,152.77c-3.54,16.59-9.12,32.66-16.38,47.91-3.23,6.78-6.82,13.46-11.43,19.42-11.74,15.16-28.53,24.09-45.09,30.34-3.94,1.49-7.94,2.86-11.97,4.09-11.62,3.56-23.54,6.05-35.56,7.53-16.05,1.98-32.4,2.15-49.64,3.56-17.17,1.39-34.96,6.53-50.06,10.84-19.67,5.62-40.02,3.95-58.92,9.31-12.94,3.66-25.77,9.84-35.67,19.18-4.57,4.3-8.51,9.28-11.55,15.01-12.06,22.74-6.94,51.28-2.5,77.38.44,2.58.86,5.17,1.26,7.77,6.28,40.77,3.96,82.38-16.09,117.07-5.71,9.88-12.99,20.2-22.93,27.39-14.19,10.26-29.85,15.2-42.93,22.71-1.03.59-2.05,1.2-3.07,1.83-15.29,9.51-27.08,22.87-33.88,39.39-7.25,17.57-8.46,39.37,1.13,58.47"/>
            <path class="cls-28" d="m587.21,147.55c-3.39,16.02-8.84,31.49-15.98,46.14-3.17,6.51-6.71,12.91-11.13,18.68-11.23,14.69-26.88,24.14-42.63,31.08-3.75,1.66-7.55,3.19-11.4,4.6-11.09,4.07-22.52,7.11-34.11,9.2-15.47,2.78-31.31,3.82-47.93,5.61-16.54,1.76-33.73,6.32-48.6,9.89-20.75,4.97-42.04,3.08-62.09,8.17-13.72,3.47-27.4,9.61-38,19.13-4.89,4.39-9.13,9.49-12.42,15.4-13.04,23.44-7.96,53.09-3.63,80.16.43,2.67.84,5.36,1.22,8.06,6.06,42.32,3.59,85.88-18.53,121.22-5.87,9.38-13.23,19.02-22.73,26.07-13.57,10.08-28.34,15.84-40.55,24.13-.96.65-1.91,1.32-2.85,2.01-14.21,10.42-24.58,24.57-29.96,41.21-5.73,17.71-5.5,38.78,4.49,56.89"/>
            <path class="cls-27" d="m581.09,142.32c-3.23,15.44-8.56,30.32-15.59,44.36-3.12,6.24-6.61,12.35-10.82,17.95-10.72,14.22-25.24,24.18-40.16,31.83-3.55,1.82-7.17,3.53-10.83,5.12-10.56,4.58-21.5,8.18-32.66,10.86-14.89,3.58-30.22,5.5-46.22,7.65-15.92,2.14-32.46,6.08-47.15,8.94-21.83,4.24-44.05,2.21-65.25,7.02-14.51,3.29-29.03,9.39-40.33,19.09-5.22,4.47-9.75,9.7-13.29,15.79-14.02,24.13-8.97,54.89-4.76,82.95.42,2.77.81,5.56,1.19,8.36,5.83,43.87,3.34,89.5-20.96,125.36-6.04,8.91-13.46,17.83-22.53,24.76-12.94,9.89-26.84,16.49-38.17,25.55-.89.72-1.77,1.45-2.64,2.2-13.12,11.34-22.08,26.26-26.03,43.03-4.22,17.84-2.53,38.19,7.86,55.31"/>
            <path class="cls-11" d="m574.97,137.09c-3.08,14.86-8.28,29.16-15.19,42.59-3.07,5.97-6.5,11.8-10.52,17.21-10.2,13.76-23.6,24.23-37.69,32.57-3.36,1.99-6.78,3.87-10.26,5.63-10.03,5.09-20.49,9.24-31.21,12.52-14.31,4.37-29.13,7.17-44.51,9.7-15.29,2.51-31.15,5.82-45.69,7.98-22.88,3.4-46.07,1.35-68.41,5.88-15.29,3.1-30.65,9.17-42.66,19.04-5.54,4.55-10.37,9.92-14.15,16.18-15,24.83-9.99,56.69-5.9,85.73.4,2.87.79,5.75,1.15,8.65,5.6,45.42,3.19,93.24-23.4,129.51-6.2,8.46-13.7,16.65-22.32,23.44-12.31,9.7-25.34,17.13-35.78,26.97-.82.78-1.64,1.57-2.43,2.38-12.04,12.25-19.58,27.95-22.11,44.85-2.7,17.98.44,37.59,11.22,53.73"/>
            <path class="cls-5" d="m568.84,131.86c-2.92,14.28-8,27.99-14.8,40.82-3.02,5.7-6.39,11.24-10.21,16.48-9.69,13.29-21.96,24.28-35.23,33.32-3.16,2.16-6.4,4.21-9.69,6.15-9.5,5.6-19.47,10.3-29.76,14.18-13.73,5.17-28.04,8.85-42.8,11.75-14.67,2.88-29.81,5.54-44.23,7.03-23.92,2.47-48.08.48-71.58,4.74-16.08,2.91-32.28,8.95-44.99,19-5.86,4.64-10.99,10.13-15.02,16.57-15.98,25.53-11.01,58.5-7.03,88.52.39,2.96.76,5.94,1.11,8.94,5.38,46.98,3.14,97.12-25.84,133.65-6.38,8.04-13.94,15.46-22.12,22.12-11.68,9.51-23.83,17.77-33.4,28.39-.75.84-1.5,1.69-2.22,2.56-10.95,13.17-17.08,29.64-18.19,46.68-1.18,18.12,3.4,37,14.58,52.15"/>
            <path class="cls-20" d="m562.72,126.63c-7.86,38.93-33.35,73.16-66.19,95.51-32.84,22.35-72.52,33.4-112.17,35.71-24.92,1.45-50.1-.39-74.74,3.6-24.64,3.99-49.65,14.95-63.21,35.91-16.96,26.23-12.02,60.3-8.16,91.3,6.35,50.98,6.26,108.05-27.21,147.03-16.67,19.42-40.25,32.4-54.94,53.36-20.36,29.05-18.78,71.6,3.68,99.06"/>
          </g>
          <g class="cls-41">
            <path class="cls-8" d="m354.52,794.51c15.55-21.52,32.39-42.1,50.4-61.61,8.01-8.67,16.47-17.3,27.09-22.46,27.13-13.2,59.56-.39,85.12,15.65,23.54,14.77,45.31,32.34,64.7,52.23,19.22,19.71,36.47,41.99,59.75,56.68,23.29,14.69,55.25,20.12,77.75,4.26,13.39-9.44,21.45-25.11,24.5-41.2,3.05-16.1,1.55-32.71-1.06-48.88-2.99-18.52-7.38-37.83-1.53-55.65,6.05-18.45,23.56-32.58,42.87-34.6,27.47-2.87,51.63,16.25,74.78,31.32,29.41,19.14,63.59,33.39,98.63,31.37,35.03-2.01,70.43-23.44,80.94-56.93"/>
            <path class="cls-24" d="m358.15,801.7c15.26-21.17,31.89-41.35,49.7-60.39,7.92-8.46,16.29-16.87,26.72-21.95,20.95-10.2,45.07-5.02,66.69,5.03,5.89,2.73,11.6,5.83,17.01,9.07,23.26,13.95,44.84,30.7,64.16,49.75,19.14,18.88,36.31,40.42,59.36,54.57,12.92,7.93,28.23,13.36,43.3,14.34,13.13.85,26.16-1.77,37.06-9.22,1.95-1.33,3.79-2.79,5.52-4.36,10.69-9.71,17.18-23.67,20.02-37.96.91-4.59,1.48-9.22,1.79-13.87.8-12.13-.14-24.4-1.53-36.39-2.19-19.03-5.1-38.51,1.48-56.29s23.33-31.39,42.18-33.46c26.82-2.94,50.49,15.08,73.13,29.09,1.78,1.1,3.59,2.19,5.4,3.25,27.48,16.08,58.59,27.23,90.18,24.67,33.69-2.73,67.47-24.04,77.23-56.77"/>
            <path class="cls-33" d="m361.77,808.88c14.98-20.82,31.38-40.59,49.01-59.17,7.83-8.26,16.12-16.44,26.36-21.44,20.57-10.04,44.21-5.36,65.48,4.03,5.8,2.55,11.43,5.46,16.78,8.51,22.98,13.14,44.38,29.06,63.62,47.27,19.06,18.05,36.17,38.83,58.96,52.46,13.41,8.02,29.12,13.68,44.66,14.9,13.5,1.05,27.01-1.41,38.31-8.91,2.02-1.34,3.94-2.82,5.75-4.43,11.14-9.89,17.79-24.28,20.85-39.02.98-4.73,1.62-9.5,2.01-14.27,1.02-12.46.46-25.09-.44-37.37-1.38-19.53-2.85-39.17,4.49-56.94,6.97-16.87,23.09-30.21,41.48-32.33,26.17-3.01,49.35,13.91,71.48,26.86,1.74,1.02,3.51,2.02,5.28,3,26.83,14.82,56.93,24.71,87.27,21.48,32.34-3.44,64.51-24.64,73.52-56.61"/>
            <path class="cls-30" d="m365.4,816.07c14.7-20.46,30.88-39.83,48.31-57.95,7.75-8.05,15.94-16.01,26-20.92,20.2-9.87,43.35-5.7,64.28,3.04,5.72,2.38,11.27,5.09,16.56,7.95,22.7,12.32,43.92,27.41,63.08,44.79,18.98,17.22,36.05,37.23,58.57,50.35,13.91,8.1,30.01,14,46.01,15.46,13.87,1.25,27.87-1.06,39.57-8.61,2.1-1.35,4.09-2.85,5.97-4.49,11.58-10.08,18.39-24.89,21.67-40.08,1.05-4.86,1.76-9.77,2.24-14.67,1.24-12.8,1.05-25.77.64-38.35-.58-20.04-.63-39.8,7.5-57.58,7.35-16.08,22.85-29.02,40.79-31.19,25.52-3.08,48.21,12.74,69.83,24.63,1.7.94,3.42,1.86,5.16,2.75,26.19,13.55,55.28,22.18,84.35,18.28,30.99-4.15,61.54-25.24,69.8-56.45"/>
            <path class="cls-36" d="m369.03,823.26c14.41-20.11,30.38-39.08,47.62-56.74,7.66-7.85,15.76-15.57,25.63-20.41,19.82-9.7,42.49-6.04,63.08,2.05,5.63,2.2,11.11,4.72,16.33,7.39,22.42,11.51,43.46,25.77,62.54,42.31,18.89,16.39,35.93,35.61,58.17,48.24,14.41,8.18,30.9,14.31,47.36,16.02,14.24,1.46,28.72-.7,40.82-8.31,2.17-1.36,4.24-2.88,6.19-4.55,12.03-10.27,19-25.51,22.49-41.15,1.11-5,1.9-10.04,2.46-15.07,1.47-13.13,1.64-26.45,1.73-39.33.22-20.55,1.56-40.41,10.5-58.22,7.69-15.3,22.62-27.84,40.09-30.05,24.87-3.15,47.07,11.56,68.18,22.4,1.66.85,3.34,1.69,5.03,2.5,25.54,12.29,53.63,19.66,81.44,15.09,29.64-4.86,58.58-25.84,66.09-56.29"/>
            <path class="cls-1" d="m372.66,830.45c14.13-19.76,29.88-38.32,46.93-55.52,7.57-7.64,15.58-15.14,25.27-19.89,19.45-9.53,41.63-6.38,61.88,1.06,5.54,2.02,10.94,4.35,16.1,6.84,22.14,10.69,42.99,24.13,61.99,39.83,18.81,15.55,35.82,33.98,57.77,46.12,14.91,8.25,31.79,14.63,48.71,16.58,14.61,1.66,29.57-.34,42.08-8,2.25-1.37,4.39-2.91,6.42-4.61,12.48-10.45,19.6-26.12,23.32-42.21,1.18-5.13,2.04-10.32,2.69-15.47,1.69-13.46,2.21-27.14,2.82-40.31.98-21.06,3.72-41.02,13.51-58.86,7.98-14.52,22.38-26.65,39.39-28.92,24.22-3.22,45.93,10.39,66.53,20.17,1.62.77,3.26,1.52,4.91,2.25,24.89,11.03,51.98,17.13,78.52,11.89,28.3-5.57,55.61-26.45,62.38-56.13"/>
            <path class="cls-29" d="m376.29,837.63c13.85-19.41,29.38-37.57,46.23-54.3,7.48-7.43,15.4-14.71,24.91-19.38,19.07-9.36,40.77-6.72,60.68.06,5.46,1.84,10.78,3.98,15.88,6.28,21.86,9.88,42.53,22.49,61.45,37.34,18.73,14.72,35.72,32.33,57.38,44.01,15.42,8.32,32.69,14.95,50.06,17.14,14.98,1.87,30.42.02,43.34-7.7,2.33-1.39,4.54-2.94,6.64-4.67,12.92-10.64,20.21-26.73,24.14-43.27,1.25-5.27,2.18-10.59,2.91-15.87,1.91-13.8,2.8-27.82,3.91-41.3,1.78-21.58,5.84-41.62,16.52-59.5,8.22-13.76,22.14-25.47,38.7-27.78,23.57-3.29,44.79,9.22,64.88,17.93,1.58.69,3.18,1.35,4.78,2,24.25,9.76,50.33,14.61,75.61,8.7,26.95-6.29,52.65-27.05,58.67-55.97"/>
            <path class="cls-31" d="m379.91,844.82c13.56-19.06,28.88-36.81,45.54-53.08,7.4-7.23,15.22-14.28,24.55-18.87,18.7-9.19,39.92-7.06,59.48-.93,5.37,1.66,10.61,3.62,15.65,5.72,21.58,9.06,42.07,20.84,60.91,34.86,18.65,13.89,35.63,30.68,56.98,41.9,15.94,8.38,33.58,15.27,51.41,17.7,15.35,2.07,31.28.37,44.59-7.39,2.4-1.4,4.69-2.97,6.86-4.73,13.37-10.82,20.81-27.35,24.96-44.33,1.32-5.41,2.32-10.86,3.14-16.27,2.14-14.13,3.39-28.51,5-42.28,2.58-22.09,7.93-42.22,19.53-60.14,8.42-13.01,21.91-24.28,38-26.64,22.91-3.36,43.65,8.05,63.23,15.7,1.54.6,3.1,1.19,4.66,1.75,23.6,8.5,48.68,12.08,72.69,5.5,25.6-7,49.69-27.65,54.95-55.81"/>
            <path class="cls-13" d="m383.54,852.01c13.28-18.71,28.38-36.06,44.84-51.87,7.31-7.02,15.04-13.85,24.18-18.35,18.33-9.02,39.05-7.36,58.27-1.92,5.28,1.49,10.45,3.25,15.43,5.16,21.3,8.25,41.61,19.2,60.37,32.38,18.57,13.06,35.55,29.01,56.59,39.79,16.45,8.44,34.47,15.58,52.76,18.26,15.72,2.28,32.13.73,45.85-7.09,2.48-1.41,4.84-3.01,7.09-4.79,13.81-11.01,21.42-27.96,25.79-45.39,1.39-5.54,2.46-11.13,3.36-16.67,2.36-14.47,3.98-29.19,6.08-43.26,3.38-22.6,9.98-42.82,22.54-60.79,8.58-12.27,21.67-23.1,37.3-25.51,22.26-3.43,42.51,6.88,61.58,13.47,1.5.52,3.01,1.02,4.53,1.5,22.95,7.24,47.02,9.56,69.78,2.31,24.25-7.71,46.72-28.25,51.24-55.65"/>
            <path class="cls-37" d="m387.17,859.2c13-18.36,27.87-35.3,44.15-50.65,7.22-6.82,14.86-13.42,23.82-17.84,17.95-8.85,38.19-7.7,57.07-2.91,5.19,1.31,10.28,2.88,15.2,4.6,21.02,7.43,41.14,17.56,59.83,29.9,18.49,12.22,35.47,27.33,56.19,37.68,16.98,8.49,35.36,15.9,54.12,18.82,16.09,2.48,32.98,1.09,47.11-6.78,2.55-1.42,5-3.04,7.31-4.85,14.26-11.2,22.02-28.58,26.61-46.45,1.45-5.68,2.6-11.41,3.59-17.07,2.58-14.8,4.57-29.88,7.17-44.24,4.18-23.11,11.99-43.44,25.55-61.43,8.7-11.55,21.44-21.91,36.61-24.37,21.61-3.5,41.38,5.7,59.93,11.24,1.46.44,2.93.85,4.41,1.25,22.31,5.98,45.37,7.03,66.86-.89,22.91-8.42,43.76-28.85,47.53-55.49"/>
            <path class="cls-9" d="m390.8,866.38c12.71-18.01,27.37-34.55,43.46-49.43,7.14-6.61,14.68-12.99,23.46-17.32,17.58-8.69,37.33-8.03,55.87-3.91,5.1,1.14,10.12,2.51,14.98,4.04,20.74,6.62,40.68,15.92,59.29,27.42,18.4,11.39,35.4,25.64,55.8,35.57,17.5,8.53,36.25,16.22,55.47,19.38,16.46,2.69,33.83,1.44,48.36-6.48,2.63-1.43,5.15-3.07,7.53-4.91,14.71-11.38,22.63-29.19,27.43-47.52,1.52-5.81,2.74-11.68,3.82-17.47,2.81-15.14,5.17-30.56,8.26-45.22,4.99-23.62,13.96-44.08,28.56-62.07,8.8-10.85,21.2-20.73,35.91-23.23,20.96-3.57,40.24,4.53,58.27,9.01,1.42.35,2.85.69,4.28,1,21.66,4.71,43.72,4.51,63.95-4.08,21.56-9.14,40.79-29.45,43.81-55.33"/>
            <path class="cls-25" d="m394.43,873.57c12.43-17.66,26.87-33.79,42.76-48.22,7.05-6.4,14.5-12.55,23.09-16.81,17.2-8.52,36.47-8.37,54.67-4.9,5.02.96,9.96,2.14,14.75,3.49,20.46,5.8,40.22,14.27,58.74,24.93,18.32,10.56,35.33,23.93,55.4,33.46,18.03,8.56,37.15,16.53,56.82,19.94,16.83,2.89,34.69,1.8,49.62-6.18,2.71-1.44,5.3-3.1,7.76-4.98,15.15-11.57,23.23-29.8,28.26-48.58,1.59-5.95,2.88-11.95,4.04-17.87,3.03-15.47,5.76-31.25,9.35-46.2,5.79-24.13,15.9-44.75,31.56-62.71,8.87-10.17,20.96-19.54,35.21-22.1,20.31-3.64,39.1,3.36,56.62,6.78,1.38.27,2.77.52,4.16.75,21.01,3.45,42.07,1.98,61.03-7.28,20.21-9.85,37.83-30.05,40.1-55.17"/>
            <path class="cls-15" d="m398.05,880.76c12.14-17.31,26.37-33.03,42.07-47,6.96-6.2,14.32-12.12,22.73-16.3,16.83-8.35,35.62-8.71,53.47-5.89,4.93.78,9.79,1.77,14.53,2.93,20.18,4.99,39.76,12.63,58.2,22.45,18.24,9.73,35.27,22.23,55,31.35,18.57,8.58,38.04,16.85,58.17,20.5,17.2,3.1,35.54,2.16,50.87-5.87,2.78-1.45,5.45-3.13,7.98-5.04,15.6-11.76,23.84-30.42,29.08-49.64,1.66-6.08,3.02-12.23,4.27-18.27,3.25-15.8,6.38-31.92,10.44-47.18,6.64-24.63,17.79-45.46,34.57-63.35,8.91-9.5,20.73-18.36,34.52-20.96,19.66-3.71,37.96,2.19,54.97,4.55,1.34.19,2.69.35,4.03.5,20.36,2.19,40.42-.54,58.12-10.47,18.86-10.56,34.86-30.65,36.39-55.01"/>
            <path class="cls-10" d="m401.68,887.94c11.86-16.96,25.87-32.28,41.37-45.78,6.88-5.99,14.14-11.69,22.37-15.78,16.45-8.18,34.76-9.05,52.27-6.89,4.84.6,9.63,1.41,14.3,2.37,19.9,4.18,39.3,10.99,57.66,19.97,18.16,8.9,35.21,20.51,54.61,29.24s38.93,17.17,59.52,21.06c17.57,3.3,36.39,2.52,52.13-5.57,2.86-1.46,5.6-3.16,8.2-5.1,16.05-11.94,24.44-31.03,29.9-50.7,1.72-6.22,3.16-12.5,4.49-18.67,3.47-16.14,6.97-32.61,11.52-48.16,7.45-25.14,19.64-46.21,37.58-63.99,8.94-8.86,20.49-17.18,33.82-19.82,19.01-3.78,36.82,1.02,53.32,2.32,1.3.1,2.61.19,3.91.25,19.72.92,38.77-3.07,55.21-13.67,17.52-11.27,31.9-31.25,32.67-54.85"/>
            <path class="cls-4" d="m405.31,895.13c11.58-16.61,25.37-31.52,40.68-44.56,6.79-5.79,13.96-11.26,22-15.27,16.08-8.01,33.9-9.39,51.06-7.88,4.76.42,9.46,1.04,14.07,1.81,19.62,3.36,38.83,9.35,57.12,17.49,18.08,8.06,35.16,18.78,54.21,27.13,19.64,8.6,39.82,17.48,60.87,21.62,17.93,3.5,37.24,2.87,53.39-5.26,2.93-1.48,5.75-3.19,8.43-5.16,16.49-12.13,25.05-31.65,30.73-51.76,1.79-6.35,3.3-12.77,4.72-19.07,3.7-16.47,7.57-33.29,12.61-49.14,8.25-25.65,21.45-47.02,40.59-64.63,8.95-8.24,20.25-15.99,33.13-18.68,18.36-3.85,35.68-.16,51.67.09,1.26.02,2.52.02,3.78,0,19.07-.34,37.11-5.59,52.29-16.86,16.17-11.98,28.94-31.85,28.96-54.69"/>
            <path class="cls-7" d="m408.94,902.32c11.29-16.25,24.87-30.77,39.99-43.35,6.7-5.58,13.78-10.83,21.64-14.76,15.7-7.84,33.05-9.74,49.86-8.87,4.67.24,9.3.67,13.85,1.25,19.34,2.55,38.37,7.7,56.58,15.01,18,7.23,35.1,17.05,53.82,25.02,20.19,8.6,40.71,17.8,62.22,22.18,18.3,3.71,38.1,3.23,54.64-4.96,3.01-1.49,5.9-3.22,8.65-5.22,16.94-12.31,25.65-32.26,31.55-52.83,1.86-6.49,3.44-13.04,4.94-19.47,3.92-16.81,8.16-33.98,13.7-50.12,9.05-26.16,23.22-47.88,43.6-65.28,8.96-7.65,20.02-14.81,32.43-17.55,17.71-3.92,34.54-1.33,50.02-2.14,1.22-.06,2.44-.15,3.66-.25,18.42-1.6,35.46-8.12,49.38-20.06,14.82-12.7,25.97-32.45,25.25-54.53"/>
            <path class="cls-34" d="m412.57,909.51c11.01-15.9,24.36-30.01,39.29-42.13,6.62-5.37,13.6-10.4,21.28-14.24,15.33-7.67,32.19-10.08,48.66-9.86,4.58.06,9.13.3,13.62.69,19.06,1.73,37.91,6.06,56.03,12.53,17.91,6.4,35.05,15.31,53.42,22.91,20.74,8.58,41.6,18.12,63.58,22.74,18.67,3.91,38.95,3.59,55.9-4.65,3.09-1.5,6.05-3.25,8.87-5.28,17.38-12.5,26.26-32.87,32.37-53.89,1.93-6.63,3.58-13.32,5.17-19.87,4.14-17.14,8.75-34.66,14.79-51.1,9.85-26.66,24.95-48.82,46.61-65.92,8.95-7.07,19.78-13.62,31.73-16.41,17.05-3.99,33.4-2.5,48.37-4.37,1.18-.15,2.36-.32,3.53-.5,17.78-2.86,33.81-10.64,46.46-23.25,13.47-13.41,23.01-33.05,21.54-54.37"/>
            <path class="cls-28" d="m416.2,916.69c10.73-15.55,23.86-29.26,38.6-40.91,6.53-5.17,13.42-9.97,20.92-13.73,14.96-7.5,31.33-10.43,47.46-10.86,4.5-.12,8.97-.07,13.4.14,18.78.92,37.45,4.42,55.49,10.04,17.83,5.57,35,13.56,53.02,20.79,21.29,8.55,42.5,18.43,64.93,23.3,19.04,4.12,39.8,3.95,57.16-4.35,3.16-1.51,6.2-3.28,9.1-5.34,17.83-12.69,26.86-33.49,33.2-54.95,1.99-6.76,3.72-13.59,5.39-20.27,4.37-17.48,9.35-35.34,15.87-52.08,10.66-27.17,26.65-49.84,49.61-66.56,8.95-6.52,19.54-12.44,31.04-15.27,16.4-4.06,32.26-3.67,46.72-6.6,1.14-.23,2.28-.48,3.41-.75,17.13-4.13,32.16-13.17,43.55-26.45,12.13-14.12,20.04-33.65,17.82-54.21"/>
            <path class="cls-27" d="m419.82,923.88c10.44-15.2,23.36-28.5,37.9-39.7,6.44-4.96,13.24-9.53,20.55-13.21,14.58-7.34,30.47-10.8,46.26-11.85,4.41-.31,8.81-.44,13.17-.42,18.5.1,36.98,2.78,54.95,7.56,17.75,4.73,34.95,11.8,52.63,18.68,21.85,8.51,43.39,18.75,66.28,23.86,19.41,4.32,40.65,4.3,58.41-4.05,3.24-1.52,6.36-3.31,9.32-5.4,18.28-12.87,27.47-34.1,34.02-56.01,2.06-6.9,3.86-13.86,5.62-20.67,4.59-17.81,9.94-36.03,16.96-53.06,11.46-27.68,28.31-50.95,52.62-67.2,8.95-5.98,19.31-11.25,30.34-14.14,15.75-4.13,31.12-4.84,45.07-8.83,1.1-.31,2.2-.65,3.29-1.01,16.48-5.39,30.51-15.69,40.63-29.64,10.78-14.83,17.08-34.25,14.11-54.05"/>
            <path class="cls-11" d="m423.45,931.07c10.16-14.85,22.86-27.75,37.21-38.48,6.36-4.76,13.06-9.1,20.19-12.7,14.21-7.17,29.61-11.14,45.06-12.84,4.32-.49,8.64-.8,12.95-.98,18.22-.71,36.52,1.13,54.41,5.08,17.67,3.9,34.9,10.04,52.23,16.57,22.41,8.45,44.28,19.07,67.63,24.42,19.78,4.53,41.5,4.66,59.67-3.74,3.31-1.53,6.51-3.35,9.54-5.46,18.72-13.06,28.07-34.72,34.84-57.07,2.13-7.03,4-14.14,5.84-21.07,4.81-18.14,10.53-36.71,18.05-54.04,12.26-28.19,29.95-52.15,55.63-67.84,8.95-5.47,19.07-10.07,29.64-13,15.1-4.19,29.99-6.02,43.42-11.06,1.06-.4,2.11-.82,3.16-1.26,15.84-6.65,28.86-18.22,37.72-32.84,9.43-15.54,14.11-34.85,10.4-53.89"/>
            <path class="cls-5" d="m427.08,938.26c9.87-14.5,22.36-26.99,36.52-37.26,6.27-4.55,12.88-8.67,19.83-12.19,13.83-7,28.76-11.48,43.85-13.83,4.23-.67,8.48-1.17,12.72-1.54,17.94-1.53,36.06-.51,53.87,2.6,17.59,3.07,34.86,8.27,51.84,14.46,22.98,8.37,45.17,19.39,68.98,24.98,20.15,4.73,42.36,5.02,60.92-3.44,3.39-1.54,6.66-3.38,9.77-5.53,19.17-13.24,28.68-35.33,35.67-58.13,2.2-7.17,4.14-14.41,6.07-21.47,5.04-18.48,11.12-37.39,19.14-55.02,13.07-28.7,31.58-53.45,58.64-68.48,8.97-4.98,18.83-8.88,28.95-11.86,14.45-4.26,28.85-7.19,41.77-13.29,1.02-.48,2.03-.98,3.04-1.51,15.19-7.91,27.2-20.74,34.8-36.03,8.08-16.26,11.15-35.45,6.68-53.73"/>
            <path class="cls-20" d="m430.71,945.44c22.29-32.88,59.02-54.61,97.94-62.54s79.79-2.81,117.26,10.37c23.55,8.28,46.06,19.7,70.33,25.54,24.27,5.84,51.58,5.38,72.17-8.72,25.78-17.65,34.37-50.98,42.79-81.07,13.83-49.48,35.95-102.09,81.87-125.12,22.87-11.47,49.64-14.35,71.28-28.01,30-18.94,44.98-58.8,34.86-92.8"/>
          </g>
          <g class="cls-41">
            <path class="cls-20" d="m.35,227.58c19.17-18.36,39.45-35.57,60.68-51.51,9.44-7.08,19.32-14.05,30.69-17.21,29.06-8.09,58.66,10.36,80.9,30.74,20.49,18.77,38.73,39.98,54.22,63.05,15.35,22.86,28.3,47.88,48.55,66.53,20.26,18.65,50.71,29.76,75.71,18.21,14.87-6.87,25.63-20.83,31.53-36.11,5.9-15.28,7.43-31.89,7.78-48.27.4-18.75-.43-38.54,8.53-55.02,9.28-17.05,29.05-27.8,48.41-26.3,27.54,2.13,47.85,25.3,67.9,44.29,25.48,24.13,56.53,44.31,91.35,48.65,34.82,4.34,73.51-10.36,89.88-41.39"/>
            <path class="cls-5" d="m2.62,235.3c18.83-18.07,38.82-34.92,59.78-50.43,9.32-6.9,19.07-13.65,30.24-16.77,22.44-6.26,45.23,3.19,64.69,16.97,5.3,3.75,10.36,7.82,15.09,11.99,20.36,17.92,38.57,38.28,54.14,60.51,15.42,22.02,28.43,46.31,48.54,64.38,11.28,10.13,25.35,18.24,40.01,21.92,12.77,3.2,26.05,2.98,38.11-2.38,2.15-.96,4.23-2.06,6.22-3.3,12.27-7.62,21.17-20.18,26.54-33.73,1.73-4.35,3.12-8.81,4.26-13.32,2.97-11.78,4.27-24.03,5.06-36.07,1.28-19.11,1.93-38.8,11.61-55.1s28.61-26.67,47.52-25.31c26.91,1.94,46.94,23.94,66.68,41.8,1.56,1.41,3.13,2.8,4.73,4.17,24.13,20.77,52.71,37.35,84.25,40.53,33.63,3.39,70.7-11.48,86.2-41.91"/>
            <path class="cls-11" d="m4.89,243.03c18.49-17.77,38.19-34.26,58.88-49.36,9.19-6.71,18.82-13.26,29.79-16.33,22.04-6.16,44.45,2.7,63.68,15.78,5.25,3.56,10.26,7.43,14.97,11.4,20.23,17.06,38.41,36.58,54.05,57.97,15.49,21.19,28.58,44.72,48.53,62.23,11.75,10.31,26.17,18.71,41.24,22.71,13.09,3.47,26.83,3.48,39.29-1.86,2.23-.95,4.38-2.06,6.45-3.32,12.74-7.72,21.87-20.67,27.54-34.62,1.82-4.47,3.31-9.05,4.55-13.67,3.25-12.07,4.97-24.59,6.3-36.84,2.16-19.46,4.26-39.04,14.68-55.19s28.16-25.55,46.63-24.32c26.28,1.76,46.03,22.58,65.46,39.31,1.53,1.32,3.08,2.62,4.65,3.91,23.72,19.41,51.54,34.57,81.96,36.87,32.43,2.45,67.89-12.61,82.52-42.42"/>
            <path class="cls-27" d="m7.16,250.75c18.15-17.48,37.56-33.61,57.97-48.29,9.07-6.52,18.56-12.87,29.34-15.89,21.65-6.06,43.67,2.21,62.68,14.58,5.2,3.37,10.17,7.04,14.85,10.81,20.1,16.21,38.26,34.88,53.97,55.43,15.56,20.36,28.74,43.12,48.53,60.08,12.22,10.48,26.99,19.18,42.46,23.5,13.42,3.74,27.6,3.99,40.47-1.33,2.31-.95,4.54-2.07,6.68-3.34,13.21-7.83,22.58-21.17,28.55-35.52,1.91-4.59,3.49-9.29,4.85-14.02,3.53-12.36,5.68-25.16,7.55-37.61,3.04-19.82,6.56-39.26,17.76-55.28,10.13-14.49,27.71-24.43,45.74-23.32,25.66,1.57,45.12,21.22,64.24,36.82,1.51,1.23,3.03,2.44,4.57,3.64,23.31,18.05,50.38,31.79,79.67,33.2,31.23,1.51,65.09-13.73,78.84-42.93"/>
            <path class="cls-28" d="m9.44,258.47c17.8-17.18,36.93-32.96,57.07-47.22,8.95-6.34,18.31-12.48,28.89-15.45,21.25-5.96,42.88,1.72,61.68,13.39,5.14,3.18,10.07,6.65,14.73,10.22,19.97,15.36,38.1,33.19,53.88,52.89,15.63,19.52,28.92,41.51,48.52,57.94,12.7,10.64,27.81,19.65,43.69,24.3,13.74,4,28.37,4.49,41.65-.81,2.38-.95,4.69-2.07,6.91-3.36,13.68-7.93,23.29-21.66,29.55-36.41,2-4.72,3.68-9.54,5.14-14.38,3.81-12.65,6.38-25.72,8.8-38.38,3.92-20.18,8.82-39.47,20.83-55.37,10.32-13.66,27.27-23.3,44.85-22.33,25.03,1.38,44.21,19.86,63.02,34.32,1.48,1.14,2.98,2.26,4.5,3.37,22.91,16.69,49.21,29.01,77.38,29.53,30.03.56,62.28-14.86,75.16-43.44"/>
            <path class="cls-34" d="m11.71,266.2c17.46-16.89,36.3-32.31,56.17-46.15,8.83-6.15,18.05-12.09,28.44-15.01,20.85-5.87,42.1,1.23,60.67,12.2,5.09,2.98,9.98,6.26,14.61,9.63,19.85,14.51,37.94,31.49,53.8,50.35,15.7,18.69,29.11,39.88,48.51,55.79,13.18,10.81,28.63,20.13,44.92,25.09,14.07,4.27,29.15,5,42.83-.28,2.46-.95,4.84-2.07,7.14-3.38,14.16-8.03,23.99-22.16,30.55-37.31,2.09-4.84,3.87-9.78,5.43-14.73,4.09-12.94,7.06-26.3,10.05-39.15,4.76-20.54,11.05-39.68,23.91-55.46,10.46-12.85,26.82-22.18,43.96-21.34,24.4,1.2,43.3,18.51,61.8,31.83,1.46,1.05,2.93,2.08,4.42,3.1,22.5,15.34,48.04,26.23,75.09,25.86,28.84-.38,59.47-15.98,71.48-43.96"/>
            <path class="cls-7" d="m13.98,273.92c17.12-16.6,35.67-31.65,55.27-45.07,8.7-5.96,17.8-11.69,28-14.57,20.45-5.77,41.32.75,59.67,11.01,5.03,2.79,9.88,5.86,14.49,9.04,19.72,13.66,37.78,29.79,53.71,47.81,15.77,17.86,29.31,38.25,48.5,53.64,13.67,10.96,29.45,20.6,46.15,25.89,14.4,4.54,29.92,5.5,44.01.24,2.54-.94,5-2.08,7.37-3.4,14.63-8.13,24.7-22.65,31.55-38.21,2.18-4.96,4.06-10.02,5.73-15.08,4.37-13.23,7.77-26.86,11.29-39.91,5.64-20.9,13.25-39.88,26.98-55.55,10.56-12.05,26.37-21.06,43.07-20.35,23.77,1.01,42.39,17.15,60.58,29.34,1.43.96,2.88,1.91,4.34,2.83,22.09,13.98,46.87,23.44,72.8,22.19,27.64-1.32,56.66-17.11,67.8-44.47"/>
            <path class="cls-4" d="m16.25,281.64c16.78-16.3,35.04-31,54.36-44,8.58-5.78,17.54-11.3,27.55-14.13,20.05-5.67,40.53.26,58.67,9.81,4.98,2.6,9.79,5.47,14.37,8.45,19.59,12.81,37.62,28.09,53.62,45.28,15.84,17.02,29.52,36.6,48.49,51.49,14.16,11.12,30.27,21.07,47.38,26.68,14.72,4.81,30.7,6.01,45.19.77,2.61-.94,5.15-2.08,7.6-3.42,15.1-8.24,25.4-23.15,32.55-39.1,2.27-5.08,4.24-10.27,6.02-15.44,4.65-13.52,8.47-27.43,12.54-40.68,6.52-21.26,15.41-40.09,30.06-55.64,10.62-11.28,25.93-19.94,42.18-19.35,23.14.83,41.49,15.79,59.36,26.85,1.41.87,2.83,1.73,4.26,2.56,21.68,12.62,45.7,20.66,70.51,18.52,26.44-2.27,53.86-18.23,64.12-44.98"/>
            <path class="cls-10" d="m18.52,289.37c16.44-16.01,34.41-30.35,53.46-42.93,8.46-5.59,17.29-10.91,27.1-13.69,19.65-5.57,39.73-.2,57.66,8.62,4.92,2.42,9.69,5.08,14.24,7.86,19.46,11.95,37.46,26.39,53.54,42.74,15.91,16.19,29.74,34.94,48.48,49.35,14.66,11.27,31.09,21.54,48.61,27.48,15.05,5.07,31.47,6.51,46.38,1.3,2.69-.94,5.31-2.08,7.83-3.44,15.57-8.34,26.11-23.64,33.55-40,2.36-5.2,4.43-10.51,6.32-15.79,4.93-13.8,9.18-28,13.79-41.45,7.4-21.62,17.54-40.32,33.13-55.72,10.65-10.52,25.48-18.81,41.29-18.36,22.52.64,40.58,14.43,58.14,24.36,1.38.78,2.78,1.55,4.19,2.29,21.27,11.26,44.53,17.88,68.22,14.85,25.25-3.21,51.05-19.36,60.44-45.5"/>
            <path class="cls-15" d="m20.8,297.09c16.09-15.71,33.78-29.7,52.56-41.86,8.34-5.4,17.03-10.52,26.65-13.25,19.25-5.47,38.95-.68,56.66,7.43,4.87,2.23,9.6,4.69,14.12,7.27,19.33,11.1,37.3,24.69,53.45,40.2,15.98,15.36,29.96,33.28,48.47,47.2,15.17,11.41,31.91,22.02,49.83,28.27,15.38,5.34,32.24,7.02,47.56,1.82,2.77-.94,5.46-2.09,8.07-3.46,16.05-8.44,26.82-24.14,34.55-40.89,2.45-5.32,4.62-10.75,6.61-16.14,5.21-14.09,9.89-28.56,15.03-42.22,8.28-21.98,19.63-40.57,36.21-55.81,10.65-9.79,25.04-17.69,40.4-17.37,21.89.46,39.67,13.07,56.91,21.87,1.36.69,2.73,1.37,4.11,2.02,20.86,9.9,43.36,15.1,65.93,11.19,24.05-4.15,48.24-20.48,56.75-46.01"/>
            <path class="cls-25" d="m23.07,304.82c15.75-15.42,33.15-29.04,51.66-40.79,8.21-5.21,16.78-10.13,26.2-12.81,18.85-5.37,38.17-1.17,55.66,6.23,4.81,2.04,9.5,4.3,14,6.68,19.2,10.25,37.14,22.99,53.37,37.66,16.05,14.52,30.2,31.6,48.47,45.05,15.68,11.54,32.73,22.49,51.06,29.07,15.7,5.61,33.02,7.52,48.74,2.35,2.85-.93,5.62-2.09,8.3-3.48,16.52-8.54,27.52-24.63,35.55-41.79,2.54-5.44,4.8-10.99,6.9-16.5,5.49-14.38,10.59-29.13,16.28-42.99,9.17-22.33,21.69-40.84,39.28-55.9,10.61-9.08,24.59-16.57,39.51-16.37,21.26.27,38.76,11.71,55.69,19.37,1.34.6,2.68,1.19,4.03,1.75,20.45,8.54,42.19,12.32,63.64,7.52,22.85-5.1,45.43-21.61,53.07-46.52"/>
            <path class="cls-9" d="m25.34,312.54c15.41-15.13,32.52-28.39,50.76-39.71,8.09-5.03,16.52-9.73,25.75-12.37,18.46-5.27,37.38-1.66,54.66,5.04,4.76,1.85,9.41,3.9,13.88,6.09,19.07,9.4,36.99,21.29,53.28,35.12,16.12,13.69,30.44,29.91,48.46,42.9,16.19,11.67,33.55,22.96,52.29,29.86,16.03,5.88,33.79,8.03,49.92,2.87,2.92-.93,5.77-2.09,8.53-3.5,16.99-8.65,28.23-25.13,36.55-42.69,2.63-5.56,4.99-11.24,7.2-16.85,5.77-14.67,11.3-29.7,17.53-43.75,10.05-22.69,23.71-41.15,42.36-55.99,10.56-8.4,24.14-15.44,38.62-15.38,20.63.08,37.85,10.36,54.47,16.88,1.31.51,2.63,1.01,3.95,1.49,20.04,7.18,41.02,9.54,61.35,3.85,21.66-6.04,42.63-22.73,49.39-47.03"/>
            <path class="cls-37" d="m27.61,320.26c15.07-14.83,31.9-27.74,49.85-38.64,7.97-4.84,16.27-9.34,25.3-11.93,18.06-5.18,36.6-2.15,53.65,3.85,4.71,1.65,9.31,3.51,13.76,5.5,18.95,8.55,36.83,19.59,53.2,32.58,16.19,12.86,30.69,28.22,48.45,40.75,16.71,11.79,34.37,23.43,53.52,30.66,16.36,6.15,34.57,8.53,51.1,3.4,3-.93,5.92-2.1,8.76-3.51,17.46-8.75,28.93-25.62,37.56-43.58,2.73-5.69,5.18-11.48,7.49-17.2,6.05-14.96,12.04-30.25,18.77-44.52,10.98-23.03,25.7-41.51,45.43-56.08,10.48-7.74,23.7-14.32,37.73-14.39,20.01-.1,36.94,9,53.25,14.39,1.29.42,2.58.83,3.88,1.22,19.64,5.82,39.85,6.75,59.06.18,20.46-6.98,39.82-23.86,45.71-47.55"/>
            <path class="cls-13" d="m29.89,327.99c14.72-14.54,31.27-27.08,48.95-37.57,7.85-4.65,16.01-8.95,24.85-11.49,17.66-5.08,35.82-2.63,52.65,2.65,4.66,1.46,9.22,3.12,13.64,4.91,18.82,7.7,36.67,17.9,53.11,30.04,16.26,12.02,30.94,26.52,48.44,38.61s35.19,23.91,54.75,31.45c16.68,6.41,35.34,9.04,52.28,3.93,3.08-.92,6.08-2.1,8.99-3.53,17.94-8.85,29.64-26.11,38.56-44.48,2.82-5.81,5.37-11.72,7.79-17.55,6.33-15.25,12.74-30.82,20.02-45.29,11.86-23.38,27.65-41.91,48.51-56.17,10.39-7.1,23.25-13.2,36.84-13.4,19.38-.29,36.03,7.64,52.03,11.9,1.26.34,2.53.65,3.8.95,19.23,4.47,38.68,3.97,56.77-3.49,19.26-7.93,37.01-24.98,42.03-48.06"/>
            <path class="cls-31" d="m32.16,335.71c14.38-14.25,30.64-26.43,48.05-36.5,7.72-4.47,15.76-8.56,24.4-11.05,17.26-4.98,35.04-3.13,51.65,1.46,4.6,1.27,9.12,2.73,13.52,4.32,18.69,6.84,36.51,16.2,53.03,27.5,16.33,11.19,31.19,24.81,48.43,36.46,17.77,12.01,36.01,24.38,55.98,32.24,17.01,6.68,36.11,9.54,53.46,4.45,3.15-.92,6.23-2.1,9.22-3.55,18.41-8.95,30.34-26.61,39.56-45.37,2.91-5.93,5.55-11.97,8.08-17.91,6.61-15.54,13.45-31.38,21.27-46.06,12.74-23.74,29.58-42.38,51.58-56.25,10.29-6.49,22.8-12.08,35.95-12.4,18.75-.47,35.12,6.28,50.81,9.41,1.24.25,2.48.47,3.72.68,18.82,3.11,37.51,1.19,54.47-7.16,18.06-8.87,34.2-26.11,38.35-48.57"/>
            <path class="cls-29" d="m34.43,343.44c14.04-13.95,30.01-25.78,47.15-35.43,7.6-4.28,15.51-8.17,23.95-10.61,16.86-4.88,34.26-3.62,50.64.27,4.55,1.08,9.03,2.33,13.4,3.73,18.56,5.99,36.35,14.5,52.94,24.96,16.4,10.36,31.45,23.1,48.42,34.31,18.31,12.1,36.83,24.85,57.2,33.04,17.34,6.95,36.89,10.05,54.64,4.98,3.23-.92,6.39-2.1,9.45-3.57,18.88-9.06,31.05-27.1,40.56-46.27,3-6.05,5.74-12.21,8.37-18.26,6.89-15.82,14.15-31.95,22.51-46.83,13.62-24.09,31.47-42.91,54.65-56.34,10.19-5.9,22.36-10.95,35.06-11.41,18.12-.66,34.21,4.92,49.59,6.92,1.21.16,2.43.29,3.64.41,18.41,1.75,36.35-1.59,52.18-10.82,16.87-9.81,31.4-27.23,34.67-49.08"/>
            <path class="cls-1" d="m36.7,351.16c13.7-13.66,29.38-25.13,46.25-34.35,7.48-4.09,15.25-7.77,23.5-10.17,16.46-4.78,33.48-4.11,49.64-.93,4.5.89,8.93,1.94,13.27,3.14,18.43,5.14,36.19,12.8,52.86,22.43,16.47,9.52,31.72,21.38,48.41,32.16,18.85,12.18,37.65,25.32,58.43,33.83,17.66,7.22,37.66,10.55,55.82,5.5,3.31-.92,6.54-2.11,9.68-3.59,19.35-9.16,31.76-27.6,41.56-47.17,3.09-6.17,5.93-12.45,8.67-18.61,7.17-16.11,14.86-32.51,23.76-47.59,14.5-24.45,33.35-43.52,57.73-56.43,10.08-5.34,21.91-9.83,34.17-10.42,17.49-.85,33.31,3.57,48.37,4.43,1.19.07,2.38.12,3.57.14,18,.39,35.18-4.37,49.89-14.49,15.67-10.76,28.59-28.36,30.99-49.6"/>
            <path class="cls-36" d="m38.98,358.88c13.35-13.36,28.75-24.47,45.34-33.28,7.36-3.91,15-7.38,23.05-9.73,16.06-4.68,32.7-4.6,48.64-2.12,4.44.69,8.84,1.55,13.15,2.55,18.3,4.29,36.03,11.1,52.77,19.89,16.54,8.69,31.98,19.65,48.4,30.02,19.4,12.25,38.47,25.8,59.66,34.63,17.99,7.49,38.44,11.06,57,6.03,3.38-.91,6.7-2.11,9.91-3.61,19.83-9.26,32.46-28.09,42.56-48.06,3.18-6.29,6.11-12.7,8.96-18.97,7.45-16.4,15.57-33.08,25.01-48.36,15.38-24.81,35.2-44.22,60.8-56.52,9.98-4.79,21.47-8.71,33.28-9.43,16.87-1.03,32.4,2.21,47.15,1.93,1.16-.02,2.33-.06,3.49-.13,17.59-.97,34.01-7.15,47.6-18.16,14.47-11.7,25.78-29.48,27.31-50.11"/>
            <path class="cls-30" d="m41.25,366.61c13.01-13.07,28.12-23.82,44.44-32.21,7.23-3.72,14.74-6.99,22.6-9.29,15.66-4.59,31.92-5.13,47.64-3.31,4.39.49,8.74,1.16,13.03,1.96,18.18,3.44,35.88,9.4,52.69,17.35,16.6,7.86,32.25,17.91,48.4,27.87,19.96,12.31,39.29,26.27,60.89,35.42,18.31,7.75,39.21,11.56,58.18,6.56,3.46-.91,6.85-2.11,10.14-3.63,20.3-9.37,33.17-28.59,43.56-48.96,3.27-6.41,6.3-12.94,9.26-19.32,7.73-16.69,16.27-33.64,26.25-49.13,16.27-25.16,37.04-45,63.88-56.61,9.88-4.27,21.02-7.58,32.39-8.43,16.24-1.22,31.49.85,45.93-.56,1.14-.11,2.28-.24,3.41-.4,17.18-2.33,32.84-9.94,45.31-21.83,13.28-12.65,22.97-30.61,23.63-50.62"/>
            <path class="cls-33" d="m43.52,374.33c12.67-12.78,27.49-23.17,43.54-31.14,7.11-3.53,14.49-6.6,22.15-8.85,15.27-4.49,31.14-5.62,46.63-4.51,4.34.3,8.64.77,12.91,1.37,18.05,2.58,35.72,7.7,52.6,14.81,16.67,7.03,32.52,16.17,48.39,25.72,20.52,12.35,40.11,26.74,62.12,36.22,18.64,8.02,39.98,12.07,59.36,7.08,3.54-.91,7-2.12,10.37-3.65,20.77-9.47,33.87-29.08,44.56-49.85,3.36-6.53,6.49-13.18,9.55-19.67,8.01-16.98,16.98-34.21,27.5-49.9,17.15-25.52,38.87-45.89,66.95-56.7,9.79-3.77,20.57-6.46,31.5-7.44,15.61-1.4,30.58-.51,44.7-3.05,1.11-.2,2.23-.42,3.34-.67,16.78-3.69,31.67-12.72,43.02-25.5,12.08-13.59,20.17-31.73,19.95-51.13"/>
            <path class="cls-24" d="m45.79,382.05c12.33-12.48,26.86-22.52,42.64-30.06,6.99-3.34,14.23-6.21,21.7-8.41,14.87-4.39,30.35-6.11,45.63-5.7,4.28.11,8.55.37,12.79.78,17.92,1.73,35.56,6,52.52,12.27,16.74,6.19,32.79,14.42,48.38,23.57,21.09,12.38,40.93,27.21,63.35,37.01,18.97,8.29,40.76,12.57,60.55,7.61,3.61-.91,7.16-2.12,10.6-3.67,21.24-9.57,34.58-29.58,45.57-50.75,3.45-6.65,6.68-13.42,9.84-20.03,8.29-17.27,17.69-34.78,28.75-50.67,18.03-25.87,40.7-46.87,70.03-56.78,9.72-3.28,20.13-5.34,30.61-6.45,14.98-1.59,29.67-1.87,43.48-5.54,1.09-.29,2.18-.6,3.26-.93,16.37-5.05,30.5-15.5,40.73-29.17,10.88-14.53,17.36-32.86,16.27-51.65"/>
            <path class="cls-8" d="m48.07,389.78c27.85-28.32,67.9-43.07,107.61-43.86,39.71-.78,78.99,11.63,113.47,31.35,21.67,12.39,41.75,27.69,64.57,37.81,22.82,10.12,49.76,14.6,72.56,4.44,28.54-12.71,43.01-43.95,56.7-72.02,22.53-46.17,53.77-93.93,103.1-108.31,24.57-7.16,51.42-5.16,75.16-14.69,32.93-13.21,54.84-49.72,51.02-84.99"/>
          </g>
          <g class="cls-41">
            <path class="cls-20" d="m222.22,799.77c-4.21-34,29.36-62.73,63.21-68.02,33.85-5.28,67.81,5.62,101.35,12.61s71.28,9.3,99.3-10.42c35.82-25.21,44.11-78.24,80.96-101.92,28.72-18.46,66.11-12.93,95.54.8,16.64,7.76,30.79,20.82,46.69,29.92,72.12,41.26,76.99,125.56,138.26,138.14,66.35,13.61,102.35-18.74,114.87-41.17,16.04-28.74,42.78-103.3-22.75-155.12-26.62-21.05-52.91-43.49-72.49-71.21-29.32-41.5-29.12-104.94,8.37-139.24,25.7-23.5,65.17-32.09,82.63-62.23,11.73-20.25,10.13-46.36.04-67.49-10.09-21.12-27.66-37.83-46.74-51.37"/>
            <path class="cls-5" d="m223.74,801.46c-2.9-34.98,30.48-65.2,65.34-71.21,34.03-5.87,68.55,4.95,102.09,12.66,33.15,7.62,69.95,11.08,97.88-6.84,35.68-22.94,45.71-73.28,82.51-96.65,29.32-18.52,66.11-15.07,96.24-3.07,17.31,6.9,32.65,19.2,49.3,28.43,70.61,39.12,76.42,120.69,136.36,133.09,64.47,13.31,100.28-17.3,113.29-39.38,16.49-27.98,42-99.82-19.92-151.05-25.53-21.12-50.85-43.99-70.11-71.53-28.46-40.51-28.72-101.7,6.67-135.7,24.49-23.52,62.54-33.1,79.92-62.85,11.93-20.33,11.2-46.07,2.38-67.35s-25.12-39.13-43.46-53.67"/>
            <path class="cls-11" d="m225.26,803.16c-1.6-35.95,31.6-67.66,67.47-74.41,34.2-6.44,69.28,4.27,102.83,12.72,32.76,8.25,68.63,12.86,96.47-3.27,35.53-20.66,47.26-68.4,84.07-91.37,29.87-18.64,66.15-17.24,96.95-6.94,18,6.02,34.5,17.59,51.91,26.94,69.03,37.08,75.84,115.81,134.45,128.04,62.6,13.01,98.2-15.87,111.71-37.59,16.93-27.21,41.23-96.38-17.08-146.97-24.44-21.2-48.78-44.49-67.74-71.86-27.59-39.53-28.31-98.48,4.97-132.15,23.28-23.55,59.91-34.11,77.22-63.46,12.13-20.42,12.27-45.8,4.73-67.22-7.7-21.85-22.58-40.44-40.18-55.97"/>
            <path class="cls-27" d="m226.78,804.86c-.3-36.93,32.71-70.1,69.6-77.61,34.38-7,70.02,3.58,103.57,12.77,32.36,8.86,67.3,14.65,95.05.31,35.39-18.39,48.84-63.46,85.63-86.09,30.45-18.73,66.22-19.43,97.65-10.81,18.71,5.13,36.34,15.98,54.53,25.46,67.39,35.12,75.27,110.93,132.55,122.99,60.73,12.71,96.12-14.44,110.13-35.8,17.35-26.46,40.47-93-14.25-142.9-23.37-21.31-46.65-45.04-65.36-72.19-26.62-38.62-27.91-95.28,3.28-128.61,22.07-23.59,57.21-35.16,74.51-64.08,12.28-20.53,13.36-45.54,7.07-67.08s-20.04-41.74-36.89-58.27"/>
            <path class="cls-28" d="m228.3,806.55c1-37.91,33.83-72.53,71.73-80.8,34.56-7.54,70.75,2.88,104.31,12.83s65.97,16.43,93.64,3.89c35.24-16.12,50.42-58.53,87.18-80.81,31.03-18.82,66.32-21.65,98.36-14.67,19.43,4.23,38.18,14.38,57.14,23.97,65.7,33.24,74.7,106.06,130.65,117.94,58.86,12.4,94.02-13.01,108.55-34.01,17.77-25.7,39.72-89.67-11.42-138.82-22.3-21.43-44.56-45.55-62.99-72.52-25.72-37.66-27.51-92.1,1.58-125.07,20.87-23.65,54.56-36.17,71.8-64.7,12.46-20.62,14.46-45.3,9.41-66.95-5.28-22.65-17.5-43.04-33.61-60.57"/>
            <path class="cls-34" d="m229.82,808.25c2.31-38.88,34.95-74.96,73.86-84,34.74-8.07,71.48,2.18,105.05,12.88,31.58,10.07,64.67,18.27,92.22,7.47,35.13-13.77,52.01-53.58,88.74-75.54,31.62-18.9,66.44-23.9,99.06-18.54,20.17,3.31,40.01,12.78,59.75,22.48,63.96,31.44,74.13,101.18,128.74,112.89,56.99,12.1,91.93-11.58,106.97-32.22,18.18-24.95,38.98-86.41-8.59-134.74-21.23-21.57-42.48-46.07-60.61-72.85-24.83-36.69-27.12-88.95-.12-121.53,19.66-23.73,51.91-37.19,69.1-65.31,12.65-20.7,15.57-45.07,11.75-66.82-4.06-23.08-14.97-44.35-30.32-62.87"/>
            <path class="cls-7" d="m231.34,809.95c3.61-39.86,36.07-77.37,75.99-87.2,34.92-8.59,72.22,1.47,105.8,12.94,31.19,10.66,63.34,20.06,90.81,11.05,34.98-11.49,53.6-48.64,90.29-70.26,32.2-18.98,66.57-26.18,99.77-22.41,20.91,2.38,41.83,11.19,62.36,20.99,62.19,29.7,73.56,96.31,126.84,107.84,55.11,11.8,89.82-10.15,105.38-30.43,18.58-24.2,38.27-83.22-5.76-130.67-20.17-21.74-40.4-46.58-58.23-73.18-23.94-35.72-26.74-85.83-1.82-117.99,18.46-23.82,49.27-38.2,66.39-65.93,12.84-20.79,16.7-44.86,14.09-66.68-2.82-23.51-12.43-45.65-27.04-65.17"/>
            <path class="cls-4" d="m232.86,811.65c4.91-40.83,37.2-79.77,78.12-90.39,35.1-9.11,72.95.74,106.54,13,30.8,11.23,62.01,21.86,89.39,14.62,34.84-9.2,55.19-43.68,91.85-64.98,32.79-19.06,66.71-28.5,100.47-26.28,21.66,1.42,43.65,9.61,64.97,19.5,60.38,28.02,72.99,91.43,124.93,102.79,53.24,11.5,87.71-8.73,103.8-28.64,18.97-23.45,37.59-80.09-2.92-126.59-19.11-21.94-38.32-47.09-55.86-73.51-23.06-34.75-26.37-82.74-3.52-114.45,17.25-23.94,46.63-39.21,63.69-66.55,13.03-20.88,17.85-44.65,16.43-66.55-1.56-23.96-9.89-46.96-23.76-67.47"/>
            <path class="cls-10" d="m234.38,813.34c6.21-41.81,38.32-82.17,80.25-93.59,35.29-9.61,73.69.01,107.28,13.05,30.41,11.8,60.68,23.65,87.97,18.2,34.69-6.92,56.79-38.73,93.4-59.7,33.38-19.13,66.85-30.84,101.18-30.15,22.41.45,45.46,8.04,67.59,18.02,58.54,26.4,72.42,86.55,123.03,97.74,51.37,11.19,85.59-7.31,102.22-26.85,19.34-22.71,36.95-77.05-.09-122.52-18.05-22.16-36.25-47.6-53.48-73.84-22.18-33.77-26.02-79.68-5.22-110.91,16.03-24.07,43.99-40.23,60.98-67.17,13.22-20.96,19.02-44.45,18.77-66.41-.28-24.41-7.35-48.26-20.47-69.77"/>
            <path class="cls-15" d="m235.9,815.04c7.52-42.79,39.45-84.55,82.38-96.78,35.47-10.11,74.43-.73,108.02,13.11,30.02,12.36,59.35,25.44,86.56,21.78,34.54-4.64,58.39-33.77,94.96-54.43,33.98-19.2,67-33.21,101.88-34.01,23.17-.54,47.26,6.48,70.2,16.53,56.68,24.83,71.84,81.68,121.13,92.69,49.5,10.89,83.46-5.89,100.64-25.05,19.71-21.98,36.36-74.08,2.74-118.44-16.98-22.41-34.17-48.1-51.11-74.17-21.3-32.8-25.69-76.65-6.92-107.37,14.81-24.23,41.36-41.24,58.28-67.78,13.42-21.05,20.2-44.25,21.11-66.28,1.02-24.86-4.82-49.57-17.19-72.07"/>
            <path class="cls-25" d="m237.42,816.74c8.82-43.76,40.58-86.93,84.51-99.98,35.66-10.59,75.17-1.48,108.76,13.16,29.64,12.92,58.02,27.22,85.14,25.36,34.39-2.36,59.99-28.8,96.51-49.15,34.57-19.26,67.14-35.6,102.59-37.88,23.92-1.54,49.06,4.94,72.81,15.04,54.79,23.31,71.27,76.8,119.22,87.65,47.63,10.59,81.32-4.48,99.06-23.26,20.07-21.25,35.82-71.19,5.57-114.37-15.9-22.7-32.1-48.61-48.73-74.5-20.43-31.82-25.39-73.65-8.62-103.83,13.57-24.41,38.73-42.24,55.57-68.4,13.61-21.13,21.41-44.05,23.45-66.15,2.34-25.31-2.28-50.87-13.91-74.37"/>
            <path class="cls-9" d="m238.94,818.43c10.12-44.74,41.71-89.29,86.64-103.18,35.85-11.08,75.92-2.23,109.5,13.22,29.26,13.46,56.68,29.01,83.73,28.94,34.23-.09,61.59-23.83,98.07-43.87,35.17-19.32,67.28-38.01,103.29-41.75,24.67-2.56,50.85,3.41,75.42,13.55,52.88,21.83,70.7,71.92,117.32,82.6,45.75,10.29,79.18-3.08,97.48-21.47,20.43-20.53,35.35-68.38,8.41-110.29-14.8-23.02-30.04-49.11-46.36-74.83-19.56-30.83-25.12-70.68-10.32-100.29,12.3-24.61,36.1-43.25,52.87-69.02,13.81-21.22,22.63-43.85,25.79-66.01,3.68-25.76.26-52.18-10.62-76.67"/>
            <path class="cls-37" d="m240.46,820.13c11.43-45.71,42.84-91.65,88.77-106.37,36.04-11.55,76.67-3,110.24,13.27,28.89,14,55.35,30.79,82.31,32.52,34.08,2.18,63.2-18.86,99.62-38.6,35.77-19.38,67.41-40.44,104-45.62,25.41-3.59,52.63,1.9,78.03,12.07,50.96,20.39,70.11,67.14,115.42,77.55,43.86,10.07,77.03-1.68,95.9-19.68,20.77-19.82,34.96-65.65,11.24-106.22-13.67-23.38-27.97-49.61-43.98-75.16-18.7-29.84-24.89-67.74-12.02-96.74,11.02-24.83,33.47-44.25,50.16-69.63,14.01-21.3,23.86-43.64,28.13-65.88,5.03-26.21,2.8-53.48-7.34-78.97"/>
            <path class="cls-13" d="m241.98,821.83c12.73-46.69,43.98-94,90.9-109.57,36.24-12.02,77.42-3.77,110.98,13.33,28.51,14.53,54.02,32.57,80.89,36.09,33.93,4.45,64.81-13.88,101.18-33.32,36.37-19.43,67.53-42.89,104.7-49.48,26.15-4.64,54.4.41,80.64,10.58,49.02,18.98,69.54,62.27,113.51,72.5,41.99,9.77,74.88-.29,94.32-17.89,21.11-19.11,34.66-62.99,14.07-102.14-12.5-23.78-25.91-50.11-41.6-75.49-17.84-28.86-24.7-64.82-13.72-93.2,9.7-25.07,30.84-45.26,47.46-70.25,14.21-21.38,25.11-43.42,30.47-65.74,6.4-26.64,5.34-54.79-4.05-81.27"/>
            <path class="cls-31" d="m243.5,823.53c14.03-47.66,45.12-96.34,93.03-112.77,36.44-12.49,78.18-4.56,111.72,13.39,28.15,15.06,52.69,34.34,79.48,39.67,33.78,6.72,66.42-8.9,102.73-28.04s67.64-45.35,105.41-53.35c26.88-5.69,56.16-1.05,83.26,9.09,47.07,17.62,68.97,57.39,111.61,67.45,40.12,9.47,72.72,1.09,92.74-16.1,21.45-18.42,34.46-60.39,16.9-98.06-11.28-24.2-23.85-50.6-39.23-75.82-16.99-27.86-24.55-61.92-15.42-89.66,8.34-25.33,28.22-46.26,44.75-70.87,14.41-21.45,26.37-43.2,32.81-65.61,7.79-27.07,7.87-56.09-.77-83.57"/>
            <path class="cls-29" d="m245.02,825.22c15.33-48.64,46.27-98.68,95.16-115.96,36.64-12.95,78.95-5.35,112.46,13.44,27.78,15.58,51.36,36.12,78.06,43.25,33.63,8.98,68.03-3.92,104.29-22.76,37.58-19.53,67.74-47.82,106.11-57.22,27.61-6.76,57.92-2.49,85.87,7.6,45.11,16.28,68.39,52.51,109.7,62.4,38.25,9.16,70.55,2.47,91.16-14.31,21.78-17.73,34.37-57.84,19.73-93.99-9.98-24.66-21.8-51.1-36.85-76.15-16.14-26.87-24.45-59.03-17.12-86.12,6.93-25.6,25.6-47.26,42.04-71.48,14.62-21.53,27.63-42.97,35.16-65.48,9.19-27.48,10.41-57.39,2.51-85.87"/>
            <path class="cls-1" d="m246.54,826.92c16.64-49.62,47.42-101.01,97.3-119.16,36.84-13.4,79.72-6.14,113.2,13.5,27.43,16.09,50.03,37.89,76.65,46.83,33.49,11.24,69.64,1.07,105.84-17.49,38.19-19.57,67.84-50.31,106.82-61.09,28.32-7.84,59.66-3.89,88.48,6.11,43.14,14.98,67.82,47.63,107.8,57.35,36.38,8.85,68.38,3.83,89.58-12.52s34.39-55.32,22.57-89.91c-8.6-25.15-19.76-51.59-34.48-76.48-15.3-25.87-24.41-56.14-18.82-82.58,5.47-25.87,22.98-48.26,39.34-72.1,14.82-21.61,28.9-42.73,37.5-65.34,10.59-27.89,12.95-58.7,5.8-88.17"/>
            <path class="cls-36" d="m248.06,828.62c17.94-50.59,48.57-103.33,99.43-122.35,37.04-13.86,80.5-6.95,113.94,13.55,27.07,16.6,48.72,39.62,75.23,50.41,33.37,13.44,71.25,6.06,107.4-12.21,38.8-19.61,67.92-52.79,107.52-64.96,29.03-8.92,61.4-5.26,91.09,4.63,41.17,13.7,67.27,42.67,105.9,52.3,34.52,8.47,66.21,5.19,88-10.73,22.42-16.38,34.53-52.81,25.4-85.84-7.09-25.65-17.72-52.07-32.1-76.81-14.46-24.87-24.41-53.25-20.52-79.04,3.95-26.14,20.36-49.26,36.63-72.72,15.03-21.68,30.18-42.48,39.84-65.21,12.01-28.28,15.49-60,9.08-90.47"/>
            <path class="cls-30" d="m249.58,830.31c19.24-51.57,49.73-105.64,101.56-125.55,37.25-14.31,81.29-7.76,114.68,13.61,26.73,17.1,47.4,41.4,73.82,53.99,33.22,15.71,72.87,11.05,108.95-6.93,39.41-19.64,67.99-55.29,108.23-68.82,29.74-10,63.12-6.58,93.7,3.14,39.2,12.46,66.7,37.79,103.99,47.25,32.65,8.17,64.03,6.53,86.42-8.94s34.8-50.27,28.23-81.76c-5.46-26.15-15.68-52.55-29.73-77.14-13.63-23.86-24.47-50.33-22.22-75.5,2.36-26.4,17.75-50.25,33.93-73.34,15.25-21.75,31.46-42.22,42.18-65.07,13.43-28.66,18.02-61.31,12.36-92.77"/>
            <path class="cls-33" d="m251.1,832.01c20.55-52.54,50.88-107.95,103.69-128.75,37.46-14.75,82.08-8.58,115.42,13.66,26.38,17.6,46.07,43.18,72.4,57.56,33.08,17.98,74.52,16.12,110.51-1.65,40.06-19.59,68.06-57.79,108.93-72.69,30.43-11.1,64.84-7.85,96.32,1.65,37.23,11.23,66.13,32.91,102.09,42.2,30.78,7.87,61.85,7.87,84.84-7.15s35.19-47.67,31.06-77.69c-3.67-26.63-13.66-53.03-27.35-77.47-12.8-22.85-24.57-47.39-23.92-71.96.71-26.63,15.18-51.22,31.22-73.95,15.5-21.79,32.75-41.95,44.52-64.94,14.86-29.03,20.56-62.61,15.65-95.07"/>
            <path class="cls-24" d="m252.62,833.71c21.85-53.52,52.08-110.18,105.82-131.94,37.69-15.14,82.88-9.4,116.16,13.72,26.05,18.1,44.74,44.97,70.98,61.14,32.93,20.26,76.12,21.08,112.06,3.62,40.66-19.65,68.11-60.29,109.64-76.56,31.12-12.2,66.54-9.06,98.93.16,35.27,10.04,65.56,28.04,100.19,37.15,28.91,7.56,59.66,9.19,83.26-5.36,23.37-14.42,35.69-44.97,33.9-73.61-1.7-27.06-11.65-53.5-24.97-77.79-11.98-21.84-24.71-44.4-25.62-68.42-1.01-26.82,12.55-52.22,28.52-74.57,15.7-21.88,34.03-41.67,46.86-64.81,16.29-29.39,23.1-63.92,18.93-97.37"/>
            <path class="cls-8" d="m254.14,835.41c23.15-54.5,53.21-112.55,107.95-135.14,37.88-15.63,83.69-10.24,116.9,13.78,25.71,18.59,43.42,46.75,69.57,64.72,32.79,22.53,77.72,26.05,113.62,8.9,41.25-19.71,68.16-62.79,110.34-80.43,31.81-13.3,68.22-10.19,101.54-1.32,33.31,8.87,64.99,23.16,98.28,32.11,27.03,7.26,57.48,10.51,81.68-3.57,23.69-13.78,36.29-42.13,36.73-69.53.44-27.4-9.64-53.97-22.6-78.12-11.17-20.83-24.89-41.36-27.32-64.87-2.79-26.96,9.91-53.23,25.81-75.19,15.9-21.96,35.32-41.39,49.2-64.67,17.73-29.74,25.64-65.22,22.22-99.67"/>
          </g>
          <g class="cls-41">
            <path class="cls-8" d="m650.61,1038.39c-29.14-18.02-30.5-62.18-13.41-91.88,17.09-29.7,46.86-49.33,73.32-71.1,26.46-21.77,51.9-49.73,54.09-83.93,2.79-43.71-33.35-83.4-28.72-126.96,3.61-33.95,31.34-59.63,60.48-73.97,16.48-8.11,35.52-10.95,52.57-17.65,77.34-30.37,146.1,18.66,194.29-21.22,52.18-43.18,49.52-91.51,39.88-115.32-12.35-30.5-53.71-98.07-135.16-79.45-33.09,7.56-67.04,13.99-100.91,11.89-50.72-3.14-100.04-43.05-103.28-93.76-2.22-34.75,15.81-70.9,3.26-103.39-8.43-21.83-29.79-36.94-52.57-42.31-22.78-5.37-46.81-2.14-69.33,4.25"/>
            <path class="cls-18" d="m652.89,1038.26c-29.08-19.65-31.72-64.6-14.57-95.54s46.8-50.33,73.83-71.64c26.71-21.06,52.46-47.58,55.99-80.58,4.47-42.18-28.48-81.53-23.63-124.86,3.94-34.45,29.67-60.97,57.9-76.94,16.22-9.17,35.42-13.41,53.05-20.61,74.73-30.53,141.94,16.05,189.16-22.9,50.77-41.91,49.34-89,40.28-112.97-11.47-30.38-51.49-95.28-130.21-79.11-32.45,6.67-66.14,12.07-99.68,9.83-49.41-3.2-97.26-41.33-101.58-90.21-2.99-33.82,13.38-69.48,1.09-101.66-8.37-22.04-28.89-37.59-51-44.05s-46.24-4.94-69.06.25"/>
            <path class="cls-14" d="m655.17,1038.14c-29.03-21.28-32.94-67.01-15.73-99.21,16.41-30.69,46.73-51.33,74.34-72.18s53.02-45.43,57.89-77.24c6.15-40.64-23.7-79.68-18.55-122.77,4.19-34.96,28.01-62.36,55.33-79.91,15.97-10.26,35.32-15.87,53.52-23.58,72.14-30.57,137.78,13.44,184.03-24.58,49.36-40.64,49.15-86.48,40.69-110.62-10.61-30.24-49.29-92.52-125.26-78.76-31.84,5.77-65.24,10.15-98.45,7.77-48.1-3.26-94.49-39.63-99.89-86.67-3.77-32.9,10.95-68.06-1.09-99.94-8.31-22.24-28.01-38.26-49.43-45.79-21.86-7.69-45.66-7.73-68.8-3.75"/>
            <path class="cls-35" d="m657.44,1038.02c-28.97-22.9-34.14-69.42-16.88-102.87,16.09-31.18,46.66-52.33,74.84-72.73,27.19-19.67,53.58-43.28,59.79-73.89,7.84-39.1-18.87-77.82-13.46-120.67,4.48-35.47,26.35-63.79,52.76-82.88,15.72-11.37,35.22-18.32,54-26.55,69.59-30.52,133.62,10.83,178.9-26.26,47.95-39.37,48.96-83.96,41.09-108.26-9.75-30.1-47.13-89.81-120.31-78.42-31.25,4.86-64.33,8.14-97.22,5.72-46.78-3.45-91.75-37.94-98.19-83.13-4.56-31.98,8.44-66.61-3.27-98.22-8.31-22.43-27.13-38.94-47.86-47.53-21.41-8.87-45.09-10.53-68.53-7.75"/>
            <path class="cls-30" d="m659.72,1037.9c-28.92-24.53-35.34-71.81-18.04-106.53,15.77-31.66,46.57-53.34,75.35-73.27s54.14-41.13,61.7-70.55c9.52-37.57-14.03-75.97-8.37-118.58,4.78-35.98,24.68-65.25,50.18-85.86,15.47-12.5,35.12-20.75,54.48-29.52,67.07-30.38,129.47,8.22,173.77-27.94,46.54-38.11,48.77-81.43,41.5-105.91-8.9-29.95-45.01-87.14-115.35-78.07-30.67,3.95-63.42,6.2-95.99,3.66-45.47-3.54-89.02-36.26-96.5-79.59-5.36-31.08,5.99-65.19-5.44-96.5-8.26-22.63-26.25-39.65-46.29-49.28s-44.52-13.32-68.27-11.75"/>
            <path class="cls-36" d="m661.99,1037.78c-28.86-26.16-36.53-74.2-19.2-110.19,15.47-32.13,46.48-54.35,75.86-73.81,27.63-18.31,54.75-38.96,63.6-67.2,11.27-36.01-9.18-74.11-3.28-116.49,5.08-36.49,22.99-66.76,47.61-88.83,15.22-13.64,35.03-23.18,54.95-32.49,64.58-30.16,125.31,5.61,168.65-29.62,45.13-36.84,48.57-78.9,41.9-103.56-8.05-29.8-42.93-84.52-110.4-77.72-30.12,3.03-62.52,4.25-94.76,1.6-44.16-3.63-86.32-34.59-94.8-76.04-6.18-30.19,3.54-63.76-7.62-94.78-8.21-22.83-25.38-40.37-44.72-51.02-20.53-11.3-43.94-16.12-68-15.75"/>
            <path class="cls-38" d="m664.27,1037.66c-28.81-27.78-37.7-76.59-20.35-113.86,15.18-32.6,46.39-55.37,76.37-74.35,27.84-17.63,55.32-36.8,65.5-63.86,12.96-34.46-4.33-72.25,1.8-114.39,5.38-36.99,21.3-68.29,45.04-91.8,14.95-14.81,34.93-25.6,55.43-35.45,62.11-29.86,121.15,3,163.52-31.3,43.72-35.57,48.36-76.37,42.31-101.2-7.22-29.64-40.88-81.96-105.45-77.38-29.58,2.1-61.62,2.31-93.52-.46-42.84-3.72-83.65-32.93-93.11-72.5-7.01-29.31,1.09-62.34-9.79-93.05-8.16-23.03-24.5-41.12-43.15-52.76-20.09-12.54-43.37-18.91-67.74-19.75"/>
            <path class="cls-3" d="m666.54,1037.53c-28.75-29.41-38.87-78.97-21.51-117.52,14.89-33.06,46.28-56.39,76.87-74.9,28.05-16.97,55.89-34.64,67.4-60.51,14.65-32.92.53-70.39,6.89-112.3,5.69-37.5,19.58-69.85,42.46-94.77,14.68-15.99,34.84-28,55.91-38.42,59.67-29.5,116.99.39,158.39-32.98,42.32-34.3,48.14-73.83,42.71-98.85-6.4-29.48-39.76-87.7-100.5-77.03-28.66,5.03-60.71.37-92.29-2.52-41.53-3.8-81.01-31.28-91.41-68.96-7.85-28.44-1.35-60.91-11.97-91.33-8.11-23.24-23.62-41.89-41.58-54.5-19.65-13.8-42.8-21.71-67.47-23.75"/>
            <path class="cls-21" d="m668.82,1037.41c-28.69-31.04-40.04-81.34-22.67-121.18,14.62-33.52,46.18-57.43,77.38-75.44,28.25-16.31,56.45-32.48,69.3-57.16,16.34-31.37,5.39-68.53,11.98-110.2,6.01-38,17.85-71.43,39.89-97.75,14.4-17.19,34.75-30.4,56.38-41.39,57.25-29.09,112.83-2.22,153.26-34.66,40.91-33.03,47.92-71.29,43.12-96.49-5.58-29.31-37.64-85.97-95.55-76.69-28.22,4.53-59.81-1.57-91.06-4.57-40.22-3.87-78.41-29.64-89.72-65.41-8.72-27.58-3.79-59.49-14.14-89.61-8.06-23.44-22.73-42.67-40.01-56.24-19.2-15.08-42.22-24.5-67.21-27.76"/>
            <path class="cls-31" d="m671.09,1037.29c-28.64-32.66-41.19-83.72-23.82-124.85,14.35-33.98,46.06-58.47,77.89-75.98,28.45-15.65,57.01-30.32,71.2-53.82,18.02-29.83,10.26-66.66,17.07-108.11,6.32-38.51,16.09-73.02,37.32-100.72,14.1-18.39,34.66-32.78,56.86-44.36,54.86-28.62,108.67-4.83,148.13-36.34,39.5-31.76,47.69-68.74,43.52-94.14-4.78-29.14-35.49-84.17-90.6-76.34-27.84,3.96-58.9-3.5-89.83-6.63-38.91-3.94-75.84-27.99-88.02-61.87-9.61-26.72-6.23-58.07-16.32-87.89-8-23.64-21.83-43.47-38.43-57.98-18.74-16.37-41.65-27.3-66.95-31.76"/>
            <path class="cls-6" d="m673.37,1037.17c-28.58-34.29-42.33-86.08-24.98-128.51,14.08-34.43,45.94-59.51,78.39-76.52,28.64-15.01,57.57-28.17,73.11-50.47,19.7-28.28,15.13-64.8,22.16-106.02,6.65-39.01,14.32-74.63,34.74-103.69,13.79-19.61,34.58-35.14,57.34-47.33,52.49-28.1,104.51-7.44,143.01-38.02,38.09-30.49,47.45-66.19,43.93-91.79-3.99-28.96-33.3-82.28-85.65-75.99-27.52,3.3-58-5.43-88.6-8.69-37.6-4.01-73.31-26.35-86.33-58.33-10.53-25.87-8.66-56.65-18.5-86.17-7.94-23.85-20.92-44.28-36.86-59.72-18.26-17.68-41.08-30.1-66.68-35.76"/>
            <path class="cls-23" d="m675.64,1037.05c-28.53-35.92-43.47-88.45-26.14-132.17,13.83-34.88,45.82-60.57,78.9-77.06,28.83-14.37,58.12-26.01,75.01-47.13,21.38-26.74,20.01-62.94,27.24-103.92,6.97-39.52,12.52-76.25,32.17-106.66,13.46-20.83,34.51-37.49,57.81-50.29,50.14-27.54,100.35-10.05,137.88-39.7,36.68-29.22,47.21-63.64,44.34-89.43-3.2-28.78-31.15-70.4-80.7-75.65-27.22-2.89-57.09-7.36-87.37-10.75-36.29-4.07-70.83-24.7-84.63-54.78-11.47-25.01-11.1-55.23-20.67-84.44-7.88-24.05-20-45.11-35.29-61.46-17.78-19.01-40.5-32.89-66.42-39.76"/>
            <path class="cls-26" d="m677.92,1036.93c-28.47-37.54-44.59-90.81-27.29-135.83,13.58-35.33,45.69-61.63,79.41-77.61,29.01-13.74,58.68-23.85,76.91-43.78,23.05-25.2,24.89-61.08,32.33-101.83,7.3-40.02,10.71-77.88,29.6-109.64,13.12-22.06,34.45-39.83,58.29-53.26,47.81-26.94,96.25-12.58,132.75-41.38s46.95-61.09,44.74-87.08c-2.43-28.61-29.26-68.38-75.75-75.3-26.79-3.99-56.19-9.28-86.13-12.81-34.98-4.12-68.39-23.04-82.94-51.24-12.45-24.14-13.53-53.81-22.85-82.72-7.82-24.26-19.06-45.94-33.72-63.2-17.27-20.34-39.93-35.69-66.15-43.76"/>
            <path class="cls-9" d="m680.19,1036.8c-28.42-39.17-45.71-93.17-28.45-139.5,13.33-35.78,45.56-62.71,79.92-78.15,29.19-13.12,59.23-21.7,78.81-40.44,24.73-23.66,29.78-59.21,37.42-99.73,7.64-40.52,8.88-79.51,27.03-112.61,12.77-23.29,34.4-42.14,58.77-56.23,45.51-26.31,92.1-15.19,127.62-43.05,33.92-26.61,46.68-58.54,45.15-84.73-1.67-28.43-27.38-66.48-70.8-74.96-26.36-5.15-55.29-11.2-84.9-14.87-33.67-4.17-66-21.36-81.24-47.7-13.47-23.27-15.95-52.39-25.02-81-7.76-24.47-18.11-46.77-32.15-64.94-16.75-21.68-39.36-38.48-65.89-47.76"/>
            <path class="cls-25" d="m682.47,1036.68c-28.36-40.8-46.82-95.53-29.61-143.16,13.09-36.22,45.43-63.79,80.42-78.69,29.37-12.51,59.78-19.55,80.71-37.09,26.4-22.12,34.67-57.35,42.51-97.64,7.98-41.03,7.03-81.13,24.45-115.58,12.4-24.52,34.37-44.43,59.24-59.2,43.22-25.65,87.94-17.8,122.49-44.73,32.51-25.34,46.41-55.99,45.55-82.37-.92-28.25-25.48-64.69-65.84-74.61-25.93-6.37-54.39-13.11-83.67-16.92-32.36-4.21-63.64-19.66-79.54-44.16-14.52-22.37-18.38-50.98-27.2-79.28-7.69-24.67-17.15-47.61-30.58-66.68-16.22-23.03-38.79-41.28-65.62-51.76"/>
            <path class="cls-22" d="m684.74,1036.56c-28.3-42.43-47.93-97.89-30.76-146.82,12.86-36.67,45.29-64.88,80.93-79.23,29.55-11.9,60.33-17.4,82.62-33.75,28.07-20.59,39.56-55.48,47.59-95.55,8.32-41.53,5.17-82.76,21.88-118.55,12.03-25.75,34.35-46.7,59.72-62.17,40.95-24.96,83.78-20.41,117.37-46.41,31.1-24.07,46.12-53.44,45.96-80.02-.17-28.08-23.55-63.02-60.89-74.26-25.48-7.67-53.48-15.02-82.44-18.98-31.05-4.25-61.33-17.92-77.85-40.61-15.61-21.44-20.8-49.56-29.38-77.56-7.62-24.88-16.18-48.46-29.01-68.42-15.67-24.38-38.21-44.07-65.36-55.76"/>
            <path class="cls-19" d="m687.02,1036.44c-28.25-44.05-49.02-100.24-31.92-150.49,12.63-37.11,45.16-65.99,81.44-79.77,29.72-11.3,60.88-15.25,84.52-30.4,29.74-19.06,44.46-53.61,52.68-93.45,8.67-42.02,3.29-84.39,19.31-121.53,11.64-26.98,34.35-48.94,60.2-65.13,38.7-24.24,79.61-23.03,112.24-48.09,29.69-22.81,45.83-50.9,46.36-77.67.56-27.91-21.57-61.46-55.94-73.92-24.99-9.06-52.58-16.92-81.21-21.04-29.75-4.28-59.05-16.15-76.15-37.07-16.74-20.47-23.22-48.15-31.55-75.83-7.55-25.09-15.19-49.3-27.44-70.16-15.1-25.73-37.64-46.87-65.09-59.76"/>
            <path class="cls-16" d="m689.29,1036.32c-28.19-45.68-50.11-102.59-33.08-154.15,12.41-37.55,45.02-67.1,81.95-80.32,29.9-10.7,61.4-13.16,86.42-27.06,31.38-17.59,49.36-51.74,57.77-91.36,9.02-42.52,1.4-86.01,16.73-124.5,11.24-28.22,34.37-51.15,60.67-68.1,36.48-23.51,75.4-25.7,107.11-49.77,28.23-21.6,45.52-48.35,46.77-75.31,1.28-27.74-19.52-60-50.99-73.57-24.44-10.54-51.68-18.81-79.98-23.1s-56.8-14.33-74.46-33.53c-17.9-19.45-25.63-46.73-33.73-74.11-7.48-25.3-14.2-50.14-25.87-71.9-14.52-27.08-37.07-49.66-64.83-63.76"/>
            <path class="cls-4" d="m691.57,1036.2c-28.14-47.31-51.19-104.94-34.23-157.81,12.19-38,44.88-68.22,82.45-80.86,30.07-10.12,61.96-11.01,88.32-23.71,33.06-16.05,54.27-49.87,62.86-89.26,9.38-43.02-.5-87.63,14.16-127.47,10.83-29.45,34.42-53.32,61.15-71.07,34.27-22.75,71.24-28.31,101.98-51.45,26.82-20.33,45.2-45.81,47.17-72.96,2-27.57-17.38-58.62-46.04-73.23-23.8-12.13-50.79-20.7-78.74-25.16-27.14-4.33-54.56-12.46-72.76-29.98-19.09-18.38-28.05-45.32-35.9-72.39-7.4-25.51-13.19-50.97-24.3-73.64-13.92-28.43-36.49-52.46-64.56-67.76"/>
            <path class="cls-32" d="m693.84,1036.08c-28.08-48.93-52.26-107.29-35.39-161.47,11.97-38.44,44.74-69.35,82.96-81.4,30.25-9.54,62.52-8.85,90.22-20.37,34.74-14.52,59.25-47.99,67.94-87.17,9.83-43.49-2.4-89.25,11.59-130.44,10.42-30.67,34.5-55.45,61.63-74.04,32.08-21.98,67.08-30.92,96.85-53.13,25.41-19.06,44.88-43.28,47.58-70.6s-15.11-57.3-41.09-72.88c-23.06-13.83-49.89-22.58-77.51-27.21-25.83-4.34-52.33-10.54-71.07-26.44-20.31-17.23-30.41-43.92-38.08-70.67-7.28-25.74-12.18-51.8-22.72-75.38-13.32-29.77-35.92-55.25-64.3-71.76"/>
            <path class="cls-12" d="m696.12,1035.95c-28.03-50.56-53.25-109.62-36.55-165.14,11.81-38.86,44.59-70.49,83.47-81.94,30.42-8.96,63.08-6.7,92.13-17.02,36.42-12.98,64.12-46.12,73.03-85.08,10.16-44-4.32-90.86,9.01-133.42,9.99-31.9,34.63-57.53,62.11-77,29.92-21.2,62.93-33.53,91.72-54.81,24.01-17.79,44.54-40.75,47.98-68.25s-12.69-56-36.14-72.54c-22.16-15.63-49-24.44-76.28-29.27-24.53-4.34-50.09-8.56-69.37-22.9-21.54-16.01-32.84-42.5-40.26-68.95-7.22-25.94-11.16-52.63-21.15-77.12-12.7-31.11-35.35-58.05-64.03-75.76"/>
            <path class="cls-2" d="m698.39,1035.83c-27.97-52.19-54.39-111.99-37.7-168.8,11.55-39.32,44.45-71.64,83.97-82.49,30.6-8.4,63.64-4.55,94.03-13.68,38.1-11.44,69-44.26,78.12-82.98,10.48-44.5-6.24-92.47,6.44-136.39,9.56-33.12,34.8-59.56,62.58-79.97s58.77-36.14,86.6-56.49c22.6-16.52,44.2-38.22,48.39-65.9,4.1-27.1-10.1-54.68-31.19-72.19-21.08-17.51-48.11-26.3-75.05-31.33-23.23-4.34-47.83-6.52-67.68-19.35-22.76-14.72-35.28-41.08-42.43-67.22-7.15-26.15-10.13-53.46-19.58-78.86-12.07-32.45-34.77-60.84-63.77-79.76"/>
          </g>
        </g>
      </g>
    </g>
  </g>
</svg>