<?xml version="1.0" encoding="UTF-8"?>
<svg id="Layer_1" data-name="Layer 1" xmlns="http://www.w3.org/2000/svg" viewBox="0 0 1643.23 1082.27">
  <defs>
    <style>
      .cls-1 {
        fill: #8C8181;
        stroke: #8C8181;
        stroke-width: 0px;
      }
    </style>
  </defs>
  <path class="cls-1" d="m221.04,61.4c2.58,15.85,3.31,32.88,8.32,48.55,12.59,39.43,39.38,57.72,80.58,57.72,103.5.01,207.01,0,310.51,0,57.27,0,92.67-36.71,91.14-94.47-.11-4.22-.01-8.44-.01-11.21,48.38,0,96.51-4.13,143.58,1.13,49.79,5.57,80.54,42.75,87.17,92.4,1.58,11.84,2.5,23.87,2.51,35.81.16,172.12.11,344.24.08,516.36,0,4.8-.4,9.59-.67,15.81-100.36-32.16-186.71-12.75-247.38,74.8-55.87,80.62-46.6,163.9,9.11,245.19h-17.72c-187.4,0-374.79.03-562.19-.08-11.4,0-22.92-.37-34.18-2.01-57.68-8.39-87.27-40.85-91.02-99.33-.63-9.78-.83-19.6-.83-29.39C0,671.39-.07,430.1.18,188.8c.02-17.34,1.06-34.92,4.07-51.96,7.64-43.28,31.07-70.26,74.9-74.42,47.27-4.49,95.3-1.02,141.89-1.02Zm253.87,348.75c79.48,0,158.96.16,238.44-.11,21.17-.07,39.03-17,39.4-35.86.4-20.5-16.58-36.66-39.52-36.68-156.78-.12-313.56-.11-470.35,0-23.12.02-39.17,15.72-38.8,37.07.4,22.95,14.08,35.58,38.92,35.6,77.3.05,154.6.02,231.91,0Zm-4.87,136.65c-78.92,0-157.84-.13-236.76.07-27.39.07-43.63,21.55-34.93,45.32,6.32,17.26,19.78,27.09,38.43,27.16,47.9.18,95.79.07,143.69.07,108.31,0,216.63-.1,324.94.14,12.76.03,23.83-1.88,31-13.65,7.79-12.79,10.98-26.19,3.87-40.22-7.2-14.22-19.65-19.02-35.1-18.98-78.38.2-156.75.09-235.13.09Zm-125.47,275.59c0-.06,0-.12,0-.18,36.42,0,72.86.54,109.27-.22,19.5-.4,37.11-19.39,36.51-37.02-.65-19.36-16.89-35.25-37.65-35.33-70.68-.29-141.36-.3-212.03,0-21.49.09-37.24,16.96-36.57,37.56.71,21.89,13.91,35,36.08,35.14,34.79.21,69.59.06,104.38.06Z"/>
  <path class="cls-1" d="m721.65,922.73c-2.23-86.44,69.1-161.48,155.43-163.48,90.22-2.1,164.01,67.76,166.38,157.51,2.35,89.03-69.37,163.77-158.78,165.49-87.98,1.69-160.7-69.47-163.03-159.51Zm134.85,40.28c-17.98-18.14-35.22-35.32-52.18-52.76-7.77-8-16.33-12.06-25.5-3.66-10.06,9.22-5.93,18.16,2.55,26.52,19.35,19.1,38.44,38.47,57.64,57.72,15.61,15.64,19.64,15.84,35.97-.11,29.56-28.88,58.84-58.05,88.24-87.11,7.74-7.65,15.45-15.31,23.19-22.95,7.57-7.48,10.2-16.07,2.47-24.41-8.58-9.27-17.5-6.06-25.5,1.81-3.49,3.43-6.97,6.87-10.46,10.3-31.77,31.19-63.54,62.38-96.42,94.66Z"/>
  <path class="cls-1" d="m471.52,108.98c-39.75,0-79.5.17-119.25-.06-30.81-.17-52.85-22.83-53.13-54.04-.28-31.03,21.83-54.59,52.4-54.69,80.04-.25,160.09-.28,240.13.02,30.08.12,50.85,22.7,50.96,54.01.12,32.15-20.9,54.54-51.86,54.7-39.75.21-79.5.05-119.25.05Z"/>
</svg>